<?xml version="1.0" encoding="UTF-8"?>
<svg aria-hidden="true" focusable="false" width="39px" height="40px" viewBox="0 0 39 40" version="1.1" xmlns="http://www.w3.org/2000/svg" xmlns:xlink="http://www.w3.org/1999/xlink">
    <g id="Page-1" stroke="none" stroke-width="1" fill="none" fill-rule="evenodd">
        <g id="PHOENIX_DESKTOP_PAGE_PORTRAITS_A" transform="translate(-853.000000, -2913.000000)">
            <g id="Group-9" transform="translate(427.000000, 2731.000000)">
                <g id="Group-7" transform="translate(407.000000, 160.000000)">
                    <g id="Medical-/-Seringe,-LG" transform="translate(16.000000, 16.000000)">
                        <path d="M35.4,44.4 C35.7308401,44.4 36,44.6691317 36,45 C36,45.3308401 35.7308401,45.6 35.4,45.6 C35.0691599,45.6 34.8,45.3308401 34.8,45 C34.8,44.6691317 35.0691599,44.4 35.4,44.4 Z M5.4,8.4 C5.73084007,8.4 6,8.66913174 6,9 C6,9.33084007 5.73084007,9.6 5.4,9.6 C5.06915993,9.6 4.8,9.33084007 4.8,9 C4.8,8.66913174 5.06915993,8.4 5.4,8.4 Z M40.2,6 C40.5308401,6 40.8,6.26913174 40.8,6.6 C40.8,6.93084007 40.5308401,7.2 40.2,7.2 C39.8691599,7.2 39.6,6.93084007 39.6,6.6 C39.6,6.26913174 39.8691599,6 40.2,6 Z" id="🎨--Background" fill="#DADAFF"></path>
                        <path d="M29.4,32.4 C29.7313708,32.4 30,32.6686292 30,33 C30,33.3077015 29.7683759,33.5613043 29.4699727,33.5959634 L29.4,33.6 L21,33.6 C20.6686292,33.6 20.4,33.3313708 20.4,33 C20.4,32.6922985 20.6316241,32.4386957 20.9300273,32.4040366 L21,32.4 L29.4,32.4 Z M31.8,30 C32.1313708,30 32.4,30.2686292 32.4,30.6 C32.4,30.9077015 32.1683759,31.1613043 31.8699727,31.1959634 L31.8,31.2 L21,31.2 C20.6686292,31.2 20.4,30.9313708 20.4,30.6 C20.4,30.2922985 20.6316241,30.0386957 20.9300273,30.0040366 L21,30 L31.8,30 Z M21.6,24 C22.2627417,24 22.8,24.5372583 22.8,25.2 C22.8,25.7402786 22.4429492,26.1971634 21.9519377,26.3475646 C22.0080732,26.3768487 22.0722149,26.3926876 22.1435457,26.3979772 L22.2,26.4 C22.5313708,26.4 22.8,26.6686292 22.8,27 C22.8,27.3313708 22.5313708,27.6 22.2,27.6 C21.0051863,27.6 20.4,26.6922205 20.4,25.2 C20.4016383,24.5356216 20.9382686,24 21.6,24 Z M25.2,24 C25.8627417,24 26.4,24.5372583 26.4,25.2 C26.4,25.7402786 26.0429492,26.1971634 25.5519377,26.3475646 C25.6080732,26.3768487 25.6722149,26.3926876 25.7435457,26.3979772 L25.8,26.4 C26.1313708,26.4 26.4,26.6686292 26.4,27 C26.4,27.3313708 26.1313708,27.6 25.8,27.6 C24.6051863,27.6 24,26.6922205 24,25.2 C24.0016383,24.5356216 24.5382686,24 25.2,24 Z M16.2,18 C16.5313708,18 16.8,18.2686292 16.8,18.6 C16.8,18.9077015 16.5683759,19.1613043 16.2699727,19.1959634 L16.2,19.2 L12.6,19.2 C12.2686292,19.2 12,18.9313708 12,18.6 C12,18.2922985 12.2316241,18.0386957 12.5300273,18.0040366 L12.6,18 L16.2,18 Z M18.6,15.6 C18.9313708,15.6 19.2,15.8686292 19.2,16.2 C19.2,16.5077015 18.9683759,16.7613043 18.6699727,16.7959634 L18.6,16.8 L12.6,16.8 C12.2686292,16.8 12,16.5313708 12,16.2 C12,15.8922985 12.2316241,15.6386957 12.5300273,15.6040366 L12.6,15.6 L18.6,15.6 Z M19.8,13.2 C20.1313708,13.2 20.4,13.4686292 20.4,13.8 C20.4,14.1077015 20.1683759,14.3613043 19.8699727,14.3959634 L19.8,14.4 L12.6,14.4 C12.2686292,14.4 12,14.1313708 12,13.8 C12,13.4922985 12.2316241,13.2386957 12.5300273,13.2040366 L12.6,13.2 L19.8,13.2 Z" id="🎨-Secondary-+-Accent" fill="#E1000F"></path>
                        <path d="M17.4,7.2 C21.5124348,7.2 24.7727632,9.63426786 26.3567365,13.5762938 C26.480286,13.8837709 26.3311833,14.233187 26.0237062,14.3567365 C25.7162291,14.480286 25.366813,14.3311833 25.2432635,14.0237062 C23.8342991,10.5172239 20.9986024,8.4 17.4,8.4 C12.4294373,8.4 8.4,12.4294373 8.4,17.4 C8.4,19.3294997 9.00797836,21.1657376 10.1194476,22.6920434 C10.2603601,22.8855489 10.2714829,23.141762 10.1542671,23.3448994 L10.1104439,23.4104873 L7.8162,26.4 L11.4,26.4 C11.7077015,26.4 11.9613043,26.6316241 11.9959634,26.9300273 L12,27 C12,27.3077015 11.7683759,27.5613043 11.4699727,27.5959634 L11.4,27.6 L6.6,27.6 C6.12514754,27.6 5.8471784,27.0801205 6.08627018,26.6895952 L6.12397814,26.634756 L8.892,23.0268 L8.85807711,22.9766278 C7.83048181,21.4060441 7.25169014,19.5774386 7.20330296,17.6617535 L7.2,17.4 C7.2,11.7666956 11.7666956,7.2 17.4,7.2 Z M26.4,16.8 C33.027417,16.8 38.4,22.172583 38.4,28.8 C38.4,30.6783881 37.9676177,32.4962602 37.1482361,34.1418902 C37.0005379,34.4385244 36.6403352,34.5592609 36.343701,34.4115627 C36.0470668,34.2638645 35.9263303,33.9036618 36.0740285,33.6070276 C36.8111341,32.1266391 37.2,30.4917237 37.2,28.8 C37.2,22.8353247 32.3646753,18 26.4,18 C20.4353247,18 15.6,22.8353247 15.6,28.8 C15.6,34.6984011 20.32847,39.4924089 26.2016009,39.5982142 L26.4,39.6 L36.6786,39.6 L34.9007698,36.9328201 C34.7300877,36.676797 34.7821371,36.3373048 35.0111982,36.1429424 L35.0671799,36.1007698 C35.323203,35.9300877 35.6626952,35.9821371 35.8570576,36.2111982 L35.8992302,36.2671799 L38.2992302,39.8671799 C38.5523939,40.2469254 38.3051887,40.7494415 37.8671054,40.796439 L37.8,40.8 L26.4,40.8 C19.772583,40.8 14.4,35.427417 14.4,28.8 C14.4,22.172583 19.772583,16.8 26.4,16.8 Z M6.6,34.8 C6.93137085,34.8 7.2,35.0686292 7.2,35.4 C7.2,35.7077015 6.96837589,35.9613043 6.66997268,35.9959634 L6.6,36 L4.2,36 C3.86862915,36 3.6,35.7313708 3.6,35.4 C3.6,35.0922985 3.83162411,34.8386957 4.13002732,34.8040366 L4.2,34.8 L6.6,34.8 Z M9,34.8 C9.33084007,34.8 9.6,35.0691317 9.6,35.4 C9.6,35.7308401 9.33084007,36 9,36 C8.66915993,36 8.4,35.7308401 8.4,35.4 C8.4,35.0691317 8.66915993,34.8 9,34.8 Z M11.4,34.8 C11.7308401,34.8 12,35.0691317 12,35.4 C12,35.7308401 11.7308401,36 11.4,36 C11.0691599,36 10.8,35.7308401 10.8,35.4 C10.8,35.0691317 11.0691599,34.8 11.4,34.8 Z M41.4,8.4 C41.7313708,8.4 42,8.66862915 42,9 L42,9 L42,13.8 C42,14.1313708 41.7313708,14.4 41.4,14.4 L41.4,14.4 L39.6,14.4 L39.6,16.2 C39.6,16.7113019 39.0086918,16.9784603 38.6264839,16.6699351 L38.6264839,16.6699351 L38.5757359,16.6242641 L36.351,14.4 L29.4,14.4 C29.0922985,14.4 28.8386957,14.1683759 28.8040366,13.8699727 L28.8040366,13.8699727 L28.8,13.8 L28.8,9 C28.8,8.66862915 29.0686292,8.4 29.4,8.4 L29.4,8.4 Z M40.8,9.6 L30,9.6 L30,13.2 L36.6,13.2 C36.7326082,13.2 36.8606904,13.2438987 36.9648177,13.3236484 L36.9648177,13.3236484 L37.0242641,13.3757359 L38.4,14.751 L38.4,13.8 C38.4,13.4922985 38.6316241,13.2386957 38.9300273,13.2040366 L38.9300273,13.2040366 L39,13.2 L40.8,13.2 L40.8,9.6 Z M31.8,10.8 C32.1308401,10.8 32.4,11.0691317 32.4,11.4 C32.4,11.7308401 32.1308401,12 31.8,12 C31.4691599,12 31.2,11.7308401 31.2,11.4 C31.2,11.0691317 31.4691599,10.8 31.8,10.8 Z M34.2,10.8 C34.5308401,10.8 34.8,11.0691317 34.8,11.4 C34.8,11.7308401 34.5308401,12 34.2,12 C33.8691599,12 33.6,11.7308401 33.6,11.4 C33.6,11.0691317 33.8691599,10.8 34.2,10.8 Z M36.6,10.8 C36.9308401,10.8 37.2,11.0691317 37.2,11.4 C37.2,11.7308401 36.9308401,12 36.6,12 C36.2691599,12 36,11.7308401 36,11.4 C36,11.0691317 36.2691599,10.8 36.6,10.8 Z" id="🎨--Primary" fill="#000091"></path>
                    </g>
                </g>
            </g>
        </g>
    </g>
</svg>