<?xml version="1.0" encoding="UTF-8"?>
<svg aria-hidden="true" focusable="false" width="36px" height="36px" viewBox="0 0 36 36" version="1.1" xmlns="http://www.w3.org/2000/svg" xmlns:xlink="http://www.w3.org/1999/xlink">
    <g id="Page-1" stroke="none" stroke-width="1" fill="none" fill-rule="evenodd">
        <g id="Artboard" transform="translate(-194.000000, -211.000000)">
            <g id="ICONE_DEFAUT_PIN" transform="translate(194.000000, 211.000000)">
                <circle id="Background" fill="#F9F8F6" cx="18" cy="18" r="18"></circle>
                <g id="account-line" transform="translate(6.000000, 6.000000)" fill="#CAC5B0">
                    <path d="M12,22 C6.47699998,22 1.99999996,17.523 1.99999996,12 C1.99999996,6.47699998 6.47699998,1.99999996 12,1.99999996 C17.523,1.99999996 22,6.47699998 22,12 C22,17.523 17.523,22 12,22 Z M7.01299998,18.256 C8.42854845,19.3876976 10.1876787,20.0028817 12,20.0000101 C13.97,20.0000101 15.773,19.288 17.167,18.108 C15.8512166,16.7579129 14.0452096,15.9975649 12.16,15.9999942 C10.204047,15.9977438 8.33686117,16.8161567 7.01299998,18.256 L7.01299998,18.256 Z M5.61599997,16.82 C7.3147237,15.0172322 9.68298104,13.9966813 12.16,14 C14.5465885,13.9968946 16.8360668,14.9447861 18.522,16.634 C20.8981832,13.2896668 20.3594154,8.6899036 17.274712,5.98520109 C14.1900085,3.28049859 9.55928608,3.34759491 6.55424009,6.14053414 C3.5491941,8.93347336 3.14392,13.5469152 5.61599997,16.821 L5.61599997,16.82 Z M12,13 C9.79086099,13 7.99999998,11.209139 7.99999998,8.99999997 C7.99999998,6.79086098 9.79086099,4.99999997 12,4.99999997 C14.209139,4.99999997 16,6.79086098 16,8.99999997 C16,11.209139 14.209139,13 12,13 Z M12,11 C13.1045695,11 14,10.1045695 14,8.99999998 C14,7.89543048 13.1045695,6.99999998 12,6.99999998 C10.8954305,6.99999998 9.99999999,7.89543048 9.99999999,8.99999998 C9.99999999,10.1045695 10.8954305,11 12,11 Z"></path>
                </g>
            </g>
        </g>
    </g>
</svg>
