<?xml version="1.0" encoding="UTF-8"?>
<svg width="10px" height="12px" viewBox="0 0 10 12" version="1.1" xmlns="http://www.w3.org/2000/svg" xmlns:xlink="http://www.w3.org/1999/xlink" aria-hidden="true" focusable="false">
    <g id="Page-1" stroke="none" stroke-width="1" fill="none" fill-rule="evenodd">
        <g id="PHOENIX_DESKTOP_PAGE_AGENDA_B-1" transform="translate(-484.000000, -483.000000)" fill="#000091">
            <g id="Group-12" transform="translate(426.000000, 238.000000)">
                <g id="Group-20" transform="translate(33.000000, 0.000000)">
                    <g id="Group-26" transform="translate(0.000000, 120.000000)">
                        <g id="Group-22" transform="translate(24.000000, 121.000000)">
                            <g id="map-pin-2-line" transform="translate(0.000000, 4.000000)">
                                <path d="M9.18197402,1.81801299 C10.9393318,3.57536364 10.9393435,6.42459603 9.182,8.18196103 L6,11.363961 L2.818,8.18196103 C1.06065652,6.42459603 1.06066815,3.57536364 2.81802598,1.81801299 C4.57538381,0.0606623367 7.42461619,0.0606623367 9.18197402,1.81801299 Z M3.52516836,2.52529775 C2.15834296,3.89207665 2.15826759,6.10808915 3.525,7.47496103 L6,9.94996103 L8.475,7.47496103 C9.84173241,6.10808915 9.84165704,3.89207665 8.47483164,2.52529775 C7.10800625,1.15851884 4.89199375,1.15851884 3.52516836,2.52529775 Z M6,3.99996103 C6.55228475,3.99996103 7,4.44767628 7,4.99996103 C7,5.55224578 6.55228475,5.99996103 6,5.99996103 C5.44771525,5.99996103 5,5.55224578 5,4.99996103 C5,4.44767628 5.44771525,3.99996103 6,3.99996103 Z"></path>
                            </g>
                        </g>
                    </g>
                </g>
            </g>
        </g>
    </g>
</svg>
