<?xml version="1.0" encoding="UTF-8"?>
<svg aria-hidden="true" focusable="false" width="40px" height="45px" viewBox="0 0 40 45" version="1.1" xmlns="http://www.w3.org/2000/svg" xmlns:xlink="http://www.w3.org/1999/xlink">
    <g id="Page-1" stroke="none" stroke-width="1" fill="none" fill-rule="evenodd">
        <g id="PHOENIX_DESKTOP_PAGE_PORTRAITS_A" transform="translate(-548.000000, -2910.000000)">
            <g id="Group-9" transform="translate(427.000000, 2731.000000)">
                <g id="Group-6" transform="translate(101.000000, 160.000000)">
                    <g id="Medical-/-Seringe,-LG" transform="translate(16.000000, 16.000000)">
                        <path d="M24.6,46.8 C24.9308401,46.8 25.2,47.0691317 25.2,47.4 C25.2,47.7308401 24.9308401,48 24.6,48 C24.2691599,48 24,47.7308401 24,47.4 C24,47.0691317 24.2691599,46.8 24.6,46.8 Z M12.6,44.4 C12.9308401,44.4 13.2,44.6691317 13.2,45 C13.2,45.3308401 12.9308401,45.6 12.6,45.6 C12.2691599,45.6 12,45.3308401 12,45 C12,44.6691317 12.2691599,44.4 12.6,44.4 Z M37.8,43.2 C38.1308401,43.2 38.4,43.4691317 38.4,43.8 C38.4,44.1308401 38.1308401,44.4 37.8,44.4 C37.4691599,44.4 37.2,44.1308401 37.2,43.8 C37.2,43.4691317 37.4691599,43.2 37.8,43.2 Z M39,4.8 C39.3308401,4.8 39.6,5.06913174 39.6,5.4 C39.6,5.73084007 39.3308401,6 39,6 C38.6691599,6 38.4,5.73084007 38.4,5.4 C38.4,5.06913174 38.6691599,4.8 39,4.8 Z M10.2,3.6 C10.5308401,3.6 10.8,3.86913174 10.8,4.2 C10.8,4.53084007 10.5308401,4.8 10.2,4.8 C9.86915993,4.8 9.6,4.53084007 9.6,4.2 C9.6,3.86913174 9.86915993,3.6 10.2,3.6 Z" id="🎨--Background" fill="#DADAFF"></path>
                        <path d="M15.6,27.6 C16.5941125,27.6 17.4,28.4058875 17.4,29.4 C17.4,30.1836167 16.8992618,30.8502798 16.2003065,31.0974682 L16.2,33 C16.2,33.3313708 15.9313708,33.6 15.6,33.6 C15.2922985,33.6 15.0386957,33.3683759 15.0040366,33.0699727 L15,33 L14.998686,31.0971116 C14.300257,30.8496391 13.8,30.1832402 13.8,29.4 C13.8,28.4058875 14.6058875,27.6 15.6,27.6 Z M33,24 C33.9941125,24 34.8,24.8058875 34.8,25.8 C34.8,26.5832402 34.299743,27.2496391 33.601314,27.4971116 L33.6,29.4 C33.6,29.7313708 33.3313708,30 33,30 C32.6922985,30 32.4386957,29.7683759 32.4040366,29.4699727 L32.4,29.4 L32.398686,27.4971116 C31.700257,27.2496391 31.2,26.5832402 31.2,25.8 C31.2,24.8058875 32.0058875,24 33,24 Z M15.6,28.8 C15.2686292,28.8 15,29.0686292 15,29.4 C15,29.7313708 15.2686292,30 15.6,30 C15.9313708,30 16.2,29.7313708 16.2,29.4 C16.2,29.0686292 15.9313708,28.8 15.6,28.8 Z M33,25.2 C32.6686292,25.2 32.4,25.4686292 32.4,25.8 C32.4,26.1313708 32.6686292,26.4 33,26.4 C33.3313708,26.4 33.6,26.1313708 33.6,25.8 C33.6,25.4686292 33.3313708,25.2 33,25.2 Z M19.8,9.6 C20.7941125,9.6 21.6,10.4058875 21.6,11.4 C21.6,12.1832402 21.099743,12.8496391 20.401314,13.0971116 L20.4,15 C20.4,15.3313708 20.1313708,15.6 19.8,15.6 C19.4922985,15.6 19.2386957,15.3683759 19.2040366,15.0699727 L19.2,15 L19.1996935,13.0974682 C18.5007382,12.8502798 18,12.1836167 18,11.4 C18,10.4058875 18.8058875,9.6 19.8,9.6 Z M19.8,10.8 C19.4686292,10.8 19.2,11.0686292 19.2,11.4 C19.2,11.7313708 19.4686292,12 19.8,12 C20.1313708,12 20.4,11.7313708 20.4,11.4 C20.4,11.0686292 20.1313708,10.8 19.8,10.8 Z" id="🎨-Secondary-+-Accent" fill="#E1000F"></path>
                        <path d="M42.6,10.8 C42.9077015,10.8 43.1613043,11.0316241 43.1959634,11.3300273 L43.2,11.4 L43.2,36.6 C43.2,36.9077015 42.9683759,37.1613043 42.6699727,37.1959634 L42.6,37.2 L18.6,37.2 C18.2686292,37.2 18,36.9313708 18,36.6 C18,36.2922985 18.2316241,36.0386957 18.5300273,36.0040366 L18.6,36 L25.847,35.9990833 L25.4762286,35.4694599 C25.3052028,35.2251373 25.3415771,34.8976693 25.5484636,34.696088 L25.6236904,34.6338434 C25.89516,34.4438147 26.2692782,34.5098356 26.4593069,34.7813051 L26.4593069,34.7813051 L27.312,35.9990833 L30.647,35.9990833 L30.2762286,35.4694599 C30.1052028,35.2251373 30.1415771,34.8976693 30.3484636,34.696088 L30.4236904,34.6338434 C30.69516,34.4438147 31.0692782,34.5098356 31.2593069,34.7813051 L31.2593069,34.7813051 L32.112,35.9990833 L42,36 L42,25.1990833 L41.4,25.2 C41.1017662,25.2 40.8543532,24.9824104 40.807853,24.6973231 L40.8,24.6 C40.8,24.2686292 41.0686292,24 41.4,24 L41.4,24 L42,23.9990833 L42,12 L36,12 L36,12 L36,13.8 C36,14.1313708 35.7313708,14.4 35.4,14.4 C35.0686292,14.4 34.8,14.1313708 34.8,13.8 L34.8,12 L30,11.9990833 L30,12.6 C30,12.8982338 29.7824104,13.1456468 29.4973231,13.192147 L29.4,13.2 C29.0686292,13.2 28.8,12.9313708 28.8,12.6 L28.8,12.6 L28.8,11.9990833 L24.6,12 C24.2922985,12 24.0386957,11.7683759 24.0040366,11.4699727 L24,11.4 C24,11.0922985 24.2316241,10.8386957 24.5300273,10.8040366 L24.6,10.8 L42.6,10.8 Z M8.40999861,9.65008332 L10.2299958,9.6804166 C10.9715538,9.6927759 11.6022276,10.1522928 11.8668048,10.7994659 L15,10.8 C15.3313708,10.8 15.6,11.0686292 15.6,11.4 C15.6,11.7077015 15.3683759,11.9613043 15.0699727,11.9959634 L15,12 L12,11.9990833 L12,19.1990833 L13.2,19.2 C13.4982338,19.2 13.7456468,19.4175896 13.792147,19.7026769 L13.8,19.8 C13.8,20.1313708 13.5313708,20.4 13.2,20.4 L13.2,20.4 L12,20.3990833 L12.0003308,24.1143868 C12.1254456,24.2053535 12.2140495,24.3434931 12.2400138,24.5026769 L12.2478667,24.6 C12.2478667,24.7996614 12.1503424,24.9765448 12.0003308,25.0856132 L12,29.4 C12,30.3586085 11.250648,31.1421965 10.3057637,31.1969444 L10.2,31.2 L8.44982729,31.1979275 C6.750544,31.3395344 6,32.0900784 6,33.6 C6,35.0709601 6.64955256,35.8143596 8.0567507,35.9848545 L8.2,36 L13.8,36 C14.1313708,36 14.4,36.2686292 14.4,36.6 C14.4,36.9077015 14.1683759,37.1613043 13.8699727,37.1959634 L13.8,37.2 L8.14664084,37.1976226 C5.97308888,37.0035555 4.8,35.7466745 4.8,33.6 C4.8,33.4972979 4.80283323,33.3966531 4.80848368,33.2980816 L4.8186,33.1482 L4.81584643,33.1375745 C4.81066433,33.1154857 4.80670272,33.0929268 4.80403664,33.0699727 L4.8,33 L4.80049307,13.1412444 C4.83243026,11.225013 6.37656557,9.6886564 8.27685683,9.65008332 L8.40999861,9.65008332 Z M23.5592259,31.6846085 C23.8306955,31.4945798 24.2048138,31.5606006 24.3948425,31.8320702 L24.3948425,31.8320702 L25.4270747,33.3066877 C25.6171034,33.5781573 25.5510825,33.9522755 25.279613,34.1423042 C25.0081434,34.3323329 24.6340251,34.2663121 24.4439964,33.9948425 L24.4439964,33.9948425 L23.4117642,32.520225 C23.2217355,32.2487555 23.2877564,31.8746372 23.5592259,31.6846085 Z M28.3592259,31.6846085 C28.6306955,31.4945798 29.0048138,31.5606006 29.1948425,31.8320702 L29.1948425,31.8320702 L30.2270747,33.3066877 C30.4171034,33.5781573 30.3510825,33.9522755 30.079613,34.1423042 C29.8081434,34.3323329 29.4340251,34.2663121 29.2439964,33.9948425 L29.2439964,33.9948425 L28.2117642,32.520225 C28.0217355,32.2487555 28.0877564,31.8746372 28.3592259,31.6846085 Z M21.4947615,28.7353736 C21.7662311,28.5453449 22.1403493,28.6113657 22.3303781,28.8828353 L22.3303781,28.8828353 L23.3626103,30.3574528 C23.552639,30.6289223 23.4866181,31.0030406 23.2151485,31.1930693 C22.9436789,31.383098 22.5695607,31.3170772 22.379532,31.0456076 L22.379532,31.0456076 L21.3472997,29.5709901 C21.157271,29.2995205 21.2232919,28.9254023 21.4947615,28.7353736 Z M26.2947615,28.7353736 C26.5662311,28.5453449 26.9403493,28.6113657 27.1303781,28.8828353 L27.1303781,28.8828353 L28.1626103,30.3574528 C28.352639,30.6289223 28.2866181,31.0030406 28.0151485,31.1930693 C27.7436789,31.383098 27.3695607,31.3170772 27.179532,31.0456076 L27.179532,31.0456076 L26.1472997,29.5709901 C25.957271,29.2995205 26.0232919,28.9254023 26.2947615,28.7353736 Z M8.39000139,10.8499167 C7.13242315,10.828957 6.08905346,11.7994521 6.00540083,13.0403362 L6.00032644,13.1612416 L6,30.816 L6.09678774,30.7443404 C6.64340854,30.3542181 7.3585397,30.1085825 8.2339786,30.0156361 L8.4,30 L10.2,30 C10.5077015,30 10.7613043,29.7683759 10.7959634,29.4699727 L10.8,29.4 L10.8,24.6110833 L10.8,24.6 C10.8,24.5959006 10.8000411,24.5918107 10.8001229,24.5877309 L10.8,11.4801667 C10.8,11.1760849 10.5735967,10.9241567 10.2790969,10.8853491 L10.2099986,10.88025 L8.39000139,10.8499167 Z M19.4302971,25.7861386 C19.7017666,25.5961099 20.0758849,25.6621308 20.2659136,25.9336004 L20.2659136,25.9336004 L21.2981458,27.4082179 C21.4881745,27.6796874 21.4221537,28.0538057 21.1506841,28.2438344 C20.8792145,28.4338631 20.5050962,28.3678422 20.3150675,28.0963727 L20.3150675,28.0963727 L19.2828353,26.6217552 C19.0928066,26.3502856 19.1588275,25.9761674 19.4302971,25.7861386 Z M25.0036691,25.8583736 L25.0659136,25.9336004 L26.0981458,27.4082179 C26.2881745,27.6796874 26.2221537,28.0538057 25.9506841,28.2438344 C25.7063615,28.4148602 25.3788934,28.3784859 25.1773121,28.1715995 L25.1150675,28.0963727 L24.0828353,26.6217552 C23.8928066,26.3502856 23.9588275,25.9761674 24.2302971,25.7861386 C24.4746197,25.6151128 24.8020877,25.6514871 25.0036691,25.8583736 Z M15.2478667,24 C15.5792376,24 15.8478667,24.2686292 15.8478667,24.6 C15.8478667,24.9313708 15.5792376,25.2 15.2478667,25.2 L15.2478667,25.2 L13.4478667,25.2 C13.1164959,25.2 12.8478667,24.9313708 12.8478667,24.6 C12.8478667,24.2686292 13.1164959,24 13.4478667,24 L13.4478667,24 Z M18.8478667,24 C19.1792376,24 19.4478667,24.2686292 19.4478667,24.6 C19.4478667,24.9313708 19.1792376,25.2 18.8478667,25.2 L18.8478667,25.2 L17.0478667,25.2 C16.7164959,25.2 16.4478667,24.9313708 16.4478667,24.6 C16.4478667,24.2686292 16.7164959,24 17.0478667,24 L17.0478667,24 Z M24.9521333,24 C25.2835041,24 25.5521333,24.2686292 25.5521333,24.6 C25.5521333,24.8982338 25.3345436,25.1456468 25.0494564,25.192147 L24.9521333,25.2 L23.1521333,25.2 C22.8207624,25.2 22.5521333,24.9313708 22.5521333,24.6 C22.5521333,24.3017662 22.7697229,24.0543532 23.0548101,24.007853 L23.1521333,24 L24.9521333,24 Z M28.5521333,24 C28.8835041,24 29.1521333,24.2686292 29.1521333,24.6 C29.1521333,24.9313708 28.8835041,25.2 28.5521333,25.2 L28.5521333,25.2 L26.7521333,25.2 C26.4207624,25.2 26.1521333,24.9313708 26.1521333,24.6 C26.1521333,24.2686292 26.4207624,24 26.7521333,24 L26.7521333,24 Z M39.6,24 C39.9313708,24 40.2,24.2686292 40.2,24.6 C40.2,24.9313708 39.9313708,25.2 39.6,25.2 L39.6,25.2 L37.8,25.2 C37.4686292,25.2 37.2,24.9313708 37.2,24.6 C37.2,24.2686292 37.4686292,24 37.8,24 L37.8,24 Z M16.8,19.2 C17.1313708,19.2 17.4,19.4686292 17.4,19.8 C17.4,20.1313708 17.1313708,20.4 16.8,20.4 L16.8,20.4 L15,20.4 C14.6686292,20.4 14.4,20.1313708 14.4,19.8 C14.4,19.4686292 14.6686292,19.2 15,19.2 L15,19.2 Z M20.4,19.2 C20.7313708,19.2 21,19.4686292 21,19.8 C21,20.1313708 20.7313708,20.4 20.4,20.4 L20.4,20.4 L18.6,20.4 C18.2686292,20.4 18,20.1313708 18,19.8 C18,19.4686292 18.2686292,19.2 18.6,19.2 L18.6,19.2 Z M24,19.2 C24.3313708,19.2 24.6,19.4686292 24.6,19.8 C24.6,20.1313708 24.3313708,20.4 24,20.4 L24,20.4 L22.2,20.4 C21.8686292,20.4 21.6,20.1313708 21.6,19.8 C21.6,19.4686292 21.8686292,19.2 22.2,19.2 L22.2,19.2 Z M27.6,19.2 C27.9313708,19.2 28.2,19.4686292 28.2,19.8 C28.2,20.1313708 27.9313708,20.4 27.6,20.4 L27.6,20.4 L25.8,20.4 C25.4686292,20.4 25.2,20.1313708 25.2,19.8 C25.2,19.4686292 25.4686292,19.2 25.8,19.2 L25.8,19.2 Z M29.4,17.4 C29.7313708,17.4 30,17.6686292 30,18 L30,18 L30,19.8 C30,20.1313708 29.7313708,20.4 29.4,20.4 C29.0686292,20.4 28.8,20.1313708 28.8,19.8 L28.8,19.8 L28.8,18 C28.8,17.6686292 29.0686292,17.4 29.4,17.4 Z M40.2,19.2 C40.5313708,19.2 40.8,19.4686292 40.8,19.8 C40.8,20.1313708 40.5313708,20.4 40.2,20.4 L38.4,20.4 C38.0686292,20.4 37.8,20.1313708 37.8,19.8 C37.8,19.4686292 38.0686292,19.2 38.4,19.2 L40.2,19.2 Z M36,19.2 C36.3313708,19.2 36.6,19.4686292 36.6,19.8 C36.6,20.1313708 36.3313708,20.4 36,20.4 L35.4,20.4 C35.0686292,20.4 34.8,20.1313708 34.8,19.8 C34.8,19.4686292 35.0686292,19.2 35.4,19.2 L36,19.2 Z M24.6,15 C24.9313708,15 25.2,15.2686292 25.2,15.6 L25.2,15.6 L25.2,17.4 C25.2,17.7313708 24.9313708,18 24.6,18 C24.2686292,18 24,17.7313708 24,17.4 L24,17.4 L24,15.6 C24,15.2686292 24.2686292,15 24.6,15 Z M35.4,15 C35.7313708,15 36,15.2686292 36,15.6 L36,17.4 C36,17.7313708 35.7313708,18 35.4,18 C35.0686292,18 34.8,17.7313708 34.8,17.4 L34.8,15.6 C34.8,15.2686292 35.0686292,15 35.4,15 Z M29.4,13.8 C29.7313708,13.8 30,14.0686292 30,14.4 L30,14.4 L30,16.2 C30,16.5313708 29.7313708,16.8 29.4,16.8 C29.0686292,16.8 28.8,16.5313708 28.8,16.2 L28.8,16.2 L28.8,14.4 C28.8,14.0686292 29.0686292,13.8 29.4,13.8 Z M27.6,14.4 C27.9313708,14.4 28.2,14.6686292 28.2,15 C28.2,15.3313708 27.9313708,15.6 27.6,15.6 L27.6,15.6 L25.8,15.6 C25.4686292,15.6 25.2,15.3313708 25.2,15 C25.2,14.6686292 25.4686292,14.4 25.8,14.4 L25.8,14.4 Z" id="🎨--Primary" fill="#000091"></path>
                    </g>
                </g>
            </g>
        </g>
    </g>
</svg>