<?xml version="1.0" encoding="UTF-8"?>
<svg aria-hidden="true" focusable="false" width="16px" height="12px" viewBox="0 0 16 12" version="1.1" xmlns="http://www.w3.org/2000/svg" xmlns:xlink="http://www.w3.org/1999/xlink">
    <g id="Page-1" stroke="none" stroke-width="1" fill="none" fill-rule="evenodd">
        <g transform="translate(-128.000000, -1297.000000)" fill="#FFFFFF">
            <g id="Icône-Remix" transform="translate(128.000000, 1295.000000)">
                <path d="M8,11.9999986 C8.476,11.9999986 8.91333333,12.1666667 9.25666667,12.444 L8,13.9999986 L6.74333333,12.444 C7.09869943,12.1564783 7.54246605,11.9994532 8,11.9999986 Z M8,8.6666613 C9.26933333,8.6666613 10.4353333,9.11 11.3513333,9.85066667 L10.0946667,11.4066667 C9.50213568,10.9267841 8.762482,10.6654806 8,10.6666613 C7.237518,10.6654806 6.49786432,10.9267841 5.90533333,11.4066667 L4.648,9.85097391 L4.85531993,9.69212554 C5.76581054,9.02564435 6.86712807,8.66505723 8,8.6666613 Z M8,5.33332362 C10.0626667,5.33332362 11.9573333,6.054 13.446,7.25733333 L12.1893333,8.81333333 C11.0043252,7.853472 9.52498255,7.33085253 8,7.33332362 C6.41333333,7.33332362 4.956,7.888 3.81066667,8.81333333 L2.553,7.25797391 L2.82974227,7.04368765 C4.32085283,5.93240294 6.13411087,5.33053443 8,5.33332362 Z M8,1.99998691 C10.8566667,1.99998691 13.48,2.998 15.54,4.66466667 L14.2833333,6.22 C12.5059989,4.7803524 10.2872451,3.99643199 8,4 C5.62,4 3.43333333,4.832 1.71666667,6.22 L0.46,4.66466667 C2.59272755,2.93687884 5.25523023,1.99593957 8,1.99998691 Z"></path>
            </g>
        </g>
    </g>
</svg>
