<?xml version="1.0" encoding="UTF-8"?>
<svg aria-hidden="true" focusable="false" width="80px" height="80px" viewBox="0 0 80 80" version="1.1" xmlns="http://www.w3.org/2000/svg" xmlns:xlink="http://www.w3.org/1999/xlink">
    <g id="community" stroke="none" stroke-width="1" fill="none" fill-rule="evenodd">
        <path d="M59,76 C58.4485999,76 58,75.5514001 58,75 C58,74.4485529 58.4485999,74 59,74 C59.5514001,74 60,74.4485529 60,75 C60,75.5514001 59.5514001,76 59,76 Z M67,12 C66.4485999,12 66,11.5514001 66,11 C66,10.4485529 66.4485999,10 67,10 C67.5514001,10 68,10.4485529 68,11 C68,11.5514001 67.5514001,12 67,12 Z M9,16 C8.44859989,16 8,15.5514001 8,15 C8,14.4485529 8.44859989,14 9,14 C9.55140011,14 10,14.4485529 10,15 C10,15.5514001 9.55140011,16 9,16 Z" id="Couleur-décorative" fill="#ECECFE"></path>
        <path d="M36,40 C37.1045695,40 38,40.8954305 38,42 C38,42.9011353 37.4040281,43.6630739 36.5847328,43.9131672 C36.6798004,43.9613351 36.7868461,43.9877994 36.9059094,43.9966287 L37,44 C37.5522847,44 38,44.4477153 38,45 C38,45.5522847 37.5522847,46 37,46 C35.0086439,46 34,44.4870342 34,42 L34.0054857,41.8507377 C34.0818349,40.8158778 34.9456382,40 36,40 Z M42,40 C43.1045695,40 44,40.8954305 44,42 C44,42.9011353 43.4040281,43.6630739 42.5847328,43.9131672 C42.6798004,43.9613351 42.7868461,43.9877994 42.9059094,43.9966287 L43,44 C43.5522847,44 44,44.4477153 44,45 C44,45.5522847 43.5522847,46 43,46 C41.0086439,46 40,44.4870342 40,42 L40.0054857,41.8507377 C40.0818349,40.8158778 40.9456382,40 42,40 Z M33,22 C33.5522847,22 34,22.4477153 34,23 C34,23.5128358 33.6139598,23.9355072 33.1166211,23.9932723 L33,24 L21,24 C20.4477153,24 20,23.5522847 20,23 C20,22.4871642 20.3860402,22.0644928 20.8833789,22.0067277 L21,22 L33,22 Z M31,26 C31.5522847,26 32,26.4477153 32,27 C32,27.5128358 31.6139598,27.9355072 31.1166211,27.9932723 L31,28 L21,28 C20.4477153,28 20,27.5522847 20,27 C20,26.4871642 20.3860402,26.0644928 20.8833789,26.0067277 L21,26 L31,26 Z M27,30 C27.5522847,30 28,30.4477153 28,31 C28,31.5128358 27.6139598,31.9355072 27.1166211,31.9932723 L27,32 L21,32 C20.4477153,32 20,31.5522847 20,31 C20,30.4871642 20.3860402,30.0644928 20.8833789,30.0067277 L21,30 L27,30 Z M53,50 C53.5522847,50 54,50.4477153 54,51 C54,51.5128358 53.6139598,51.9355072 53.1166211,51.9932723 L53,52 L35,52 C34.4477153,52 34,51.5522847 34,51 C34,50.4871642 34.3860402,50.0644928 34.8833789,50.0067277 L35,50 L53,50 Z M49,54 C49.5522847,54 50,54.4477153 50,55 C50,55.5128358 49.6139598,55.9355072 49.1166211,55.9932723 L49,56 L35,56 C34.4477153,56 34,55.5522847 34,55 C34,54.4871642 34.3860402,54.0644928 34.8833789,54.0067277 L35,54 L49,54 Z" id="🎨Couleur-mineure-(Indice--main)" fill="#E1000F"></path>
        <path d="M44,28 C55.045695,28 64,36.954305 64,48 C64,51.1306468 63.2793629,54.1604337 61.9137269,56.9031503 C61.6675631,57.3975407 61.0672254,57.5987682 60.572835,57.3526045 C60.0784446,57.1064408 59.8772171,56.5061031 60.1233808,56.0117127 C61.3518902,53.5443985 62,50.8195395 62,48 C62,38.0588745 53.9411255,30 44,30 C34.0588745,30 26,38.0588745 26,48 C26,57.8306685 33.8807833,65.8206815 43.6693348,65.9970237 L44,66 L61.131,66 L58.1679497,61.5547002 C57.8834796,61.127995 57.9702286,60.5621746 58.351997,60.2382373 L58.4452998,60.1679497 C58.872005,59.8834796 59.4378254,59.9702286 59.7617627,60.351997 L59.8320503,60.4452998 L63.8320503,66.4452998 C64.2539898,67.0782091 63.8419811,67.9157358 63.1118423,67.9940651 L63,68 L44,68 C32.954305,68 24,59.045695 24,48 C24,36.954305 32.954305,28 44,28 Z M13,58 C13.5522847,58 14,58.4477153 14,59 C14,59.5128358 13.6139598,59.9355072 13.1166211,59.9932723 L13,60 L9,60 C8.44771525,60 8,59.5522847 8,59 C8,58.4871642 8.38604019,58.0644928 8.88337887,58.0067277 L9,58 L13,58 Z M17,58 C17.5514001,58 18,58.4485529 18,59 C18,59.5514001 17.5514001,60 17,60 C16.4485999,60 16,59.5514001 16,59 C16,58.4485529 16.4485999,58 17,58 Z M21,58 C21.5514001,58 22,58.4485529 22,59 C22,59.5514001 21.5514001,60 21,60 C20.4485999,60 20,59.5514001 20,59 C20,58.4485529 20.4485999,58 21,58 Z M29,12 C35.854058,12 41.2879387,16.0571131 43.9278942,22.6271563 C44.1338101,23.1396181 43.8853055,23.7219783 43.3728437,23.9278942 C42.8603819,24.1338101 42.2780217,23.8853055 42.0721058,23.3728437 C39.7238318,17.5287065 34.9976706,14 29,14 C20.7157288,14 14,20.7157288 14,29 C14,32.2158328 15.0132973,35.2762293 16.865746,37.8200723 C17.1006001,38.1425815 17.1191381,38.5696033 16.9237785,38.9081657 L16.8507398,39.0174788 L13.027,44 L19,44 C19.5128358,44 19.9355072,44.3860402 19.9932723,44.8833789 L20,45 C20,45.5128358 19.6139598,45.9355072 19.1166211,45.9932723 L19,46 L11,46 C10.2085792,46 9.74529734,45.1335341 10.1437836,44.4826587 L10.2066302,44.39126 L14.82,38.378 L14.7634618,38.2943797 C13.050803,35.6767402 12.0861502,32.6290643 12.0055049,29.4362558 L12,29 C12,19.6111593 19.6111593,12 29,12 Z M65,14 C65.5128358,14 65.9355072,14.3860402 65.9932723,14.8833789 L66,15 L66,23 C66,23.5128358 65.6139598,23.9355072 65.1166211,23.9932723 L65,24 L62,24 L62,27 C62,27.8134349 61.1020424,28.2561146 60.4663735,27.8474493 L60.3774732,27.7832252 L60.2928932,27.7071068 L56.585,24 L49,24 C48.5266131,24 48.1300527,23.6710663 48.0264107,23.2292908 L48.0067277,23.1166211 L48,23 L48,15 C48,14.4871642 48.3860402,14.0644928 48.8833789,14.0067277 L49,14 L65,14 Z M64,16 L50,16 L50,22 L57,22 C57.176811,22 57.3487942,22.0468253 57.4993703,22.1336084 L57.6080295,22.2060806 L57.7071068,22.2928932 L60,24.585 L60,23 C60,22.5266131 60.3289337,22.1300527 60.7707092,22.0264107 L60.8833789,22.0067277 L61,22 L64,22 L64,16 Z M53,18 C53.5514001,18 54,18.4485529 54,19 C54,19.5514001 53.5514001,20 53,20 C52.4485999,20 52,19.5514001 52,19 C52,18.4485529 52.4485999,18 53,18 Z M57,18 C57.5514001,18 58,18.4485529 58,19 C58,19.5514001 57.5514001,20 57,20 C56.4485999,20 56,19.5514001 56,19 C56,18.4485529 56.4485999,18 57,18 Z M61,18 C61.5514001,18 62,18.4485529 62,19 C62,19.5514001 61.5514001,20 61,20 C60.4485999,20 60,19.5514001 60,19 C60,18.4485529 60.4485999,18 61,18 Z" id="Couleur-majeure" fill="#000091"></path>
    </g>
</svg>
