<?xml version="1.0" encoding="UTF-8"?>
<svg width="24px" height="24px" viewBox="0 0 24 24" version="1.1" xmlns="http://www.w3.org/2000/svg" xmlns:xlink="http://www.w3.org/1999/xlink">
    <title>france-fill</title>
    <g id="france-fill" stroke="none" stroke-width="1" fill="none" fill-rule="evenodd">
        <path d="M20.9350291,17.0454731 L20.8176412,16.7957138 C20.6614643,16.4668407 20.2796986,16.3098149 19.9297807,16.4303883 L19.8395451,16.4618335 L19.7546176,16.4039503 C19.8454656,16.2951938 19.900791,16.1618019 19.912836,16.0189965 C19.9310056,15.8056897 19.8509777,15.5991927 19.6941883,15.4533829 L19.6435584,15.4061149 C19.8066765,15.283138 19.9122235,15.0928643 19.9242686,14.8857664 L19.9436631,14.5212421 C19.9520333,14.3461902 19.8934415,14.1749439 19.7782993,14.0383474 L19.5082051,13.7218922 C19.6827558,13.4859528 19.6892887,13.1646907 19.5241291,12.9207398 L19.2954779,12.5864589 L19.198097,12.4662861 L19.121948,12.2105182 C19.0490655,11.966367 18.8500165,11.7879102 18.6103411,11.7284247 L19.3099728,10.8435518 C19.3983709,10.8159121 19.4808487,10.772049 19.552098,10.7139654 L19.959587,10.380686 C20.1267881,10.2436889 20.220086,10.0432005 20.2157988,9.83129572 L20.1984458,8.78659295 L20.4207682,8.15648657 C20.4383253,8.10521281 20.4495537,8.05333819 20.4550658,7.99685694 L20.4709898,7.82300687 L20.7819145,7.24437452 C20.9544236,6.92411384 20.8449977,6.52033301 20.5324398,6.32465153 L20.2439718,6.14559396 C20.1335252,6.07629428 20.0053172,6.03823954 19.872822,6.0354355 L19.5420945,6.02962715 L19.3150766,5.90965457 C19.1919724,5.8451618 19.0551901,5.81812291 18.9053419,5.83054077 L18.5325589,5.86799465 L18.2520529,5.53211149 C18.1618174,5.42395591 18.0417756,5.34564326 17.9051973,5.30538535 L17.5168987,5.19122113 C17.3629675,5.14595602 17.1945414,5.15416783 17.0412227,5.21465484 L16.9422086,5.25451217 L16.8644263,5.22146463 C16.7609209,5.1766001 16.6467995,5.15697186 16.5369652,5.1631808 L16.0521023,4.84091723 L16.0521023,4.59015652 C16.0521023,4.37404565 15.9526799,4.17315668 15.77915,4.03896365 C15.6064368,3.90597234 15.3786022,3.85710204 15.1703664,3.9083758 L14.9343657,3.96405589 C14.8655663,3.85149398 14.7649189,3.75896087 14.6403857,3.69687156 L14.353551,3.55646959 C14.2941426,3.52682695 14.2320801,3.5057967 14.1675678,3.49357913 C14.064879,3.36459359 13.919318,3.27486451 13.7564041,3.24021467 L13.7172067,3.11463403 C13.6257463,2.81640504 13.3507525,2.61631722 13.0332948,2.61631722 L12.9208067,2.61631722 L12.7044047,2.30547007 C12.5369994,2.06372233 12.2275037,1.94935782 11.9335237,2.02126125 L10.780877,2.31588505 C10.5722328,2.36936198 10.4009486,2.51036481 10.3111214,2.70324226 L10.0575636,3.24842648 C10.0106084,3.35157486 9.98937656,3.46593937 9.99631775,3.58030388 L10.0426604,4.29012493 L9.71724087,4.58214499 L8.50416492,4.99033216 C8.23447906,5.08026152 8.04543357,5.3180035 8.0223643,5.59560282 L8.01562726,5.6751172 L7.37642483,5.55133915 L6.88400827,5.03239266 C6.73558918,4.8767688 6.51816645,4.79244751 6.32585451,4.8110743 L5.75177683,4.8397155 C5.53700808,4.8515325 5.34163385,4.95528174 5.21607987,5.12392433 C5.09032175,5.29136518 5.04704135,5.50367058 5.09705879,5.70676272 L5.28651259,6.46365148 L5.53986622,7.0595086 L5.35224979,7.02626077 C5.22138785,7.00182562 5.08542208,7.01424349 4.95905149,7.06251292 L4.9045427,7.08354317 L4.64526864,6.82497123 C4.49909523,6.67896119 4.29269675,6.60405344 4.07159926,6.61787332 L2.67090688,6.74145108 C2.58965407,6.74806059 2.51146354,6.76828969 2.42939411,6.80454184 L1.41230485,7.27021169 C1.07953578,7.42283123 0.919479985,7.79456596 1.03993014,8.13545631 L1.19508627,8.57348641 C1.24510371,8.71408866 1.34187213,8.83686527 1.47028425,8.92338973 C1.43537412,9.09163174 1.4635472,9.27008845 1.55337444,9.41890251 L1.71751329,9.69349751 C1.84510879,9.90780578 2.08151774,10.0407971 2.33425891,10.0407971 L2.72031186,10.0407971 L4.06302484,10.5645505 L4.303721,10.8772002 C4.34945123,10.9356843 4.40375587,10.9863572 4.46541002,11.0280172 L4.53951748,11.0782895 C4.54012994,11.0810935 4.5407424,11.0838975 4.54135486,11.0867016 L4.70712694,11.8237618 C4.7297879,11.9203007 4.77204753,12.0094289 4.83288506,12.088743 L5.39165128,12.81659 C5.45616357,12.9023133 5.54190775,12.9734156 5.63908448,13.0222859 L5.96695388,13.1873233 C5.9794072,13.2620307 6.00431384,13.3343347 6.04065304,13.4014312 L6.04187796,13.4038347 C5.89305057,13.5386286 5.80934792,13.7295032 5.81220606,13.9287898 C5.81383928,14.0453575 5.84568712,14.1601226 5.90325821,14.2612681 C5.89447964,14.2939151 5.8881509,14.3273632 5.884272,14.3610116 L5.67154478,16.1828322 C5.65807069,16.2953941 5.67195308,16.4073552 5.71176288,16.5113047 C5.70175939,16.5417485 5.69359328,16.5725929 5.687877,16.6038378 L5.43064447,17.983222 L4.9668093,18.5368183 C4.8322726,18.69785 4.77796796,18.9083528 4.81777775,19.1150501 C4.85840416,19.3187431 4.98804119,19.4935946 5.17463685,19.5955413 L5.47249579,19.7565729 L5.61458614,20.0015253 C5.69114345,20.1339157 5.8115936,20.2398681 5.9534798,20.2997543 L6.65004916,20.5935769 L6.85848917,20.8106892 C6.99282172,20.9508909 7.18227552,21.0312064 7.37846636,21.0312064 L7.68734955,21.0312064 L7.89293142,21.1501776 C7.97663407,21.1992481 8.06768622,21.2306934 8.1642505,21.2433115 L9.37998044,21.4041429 C9.58637892,21.4333849 9.79441063,21.3718965 9.95099583,21.2369023 C9.98039383,21.2114657 10.007342,21.1842265 10.0320445,21.1545839 L10.1500448,21.1796199 L10.4319798,21.2927827 C10.4895509,21.4782495 10.6244959,21.6350751 10.8039462,21.7203978 L11.1477396,21.8842335 C11.2857469,21.948526 11.4455985,21.9675533 11.5978965,21.938111 L11.889835,21.8796268 L12.5335288,21.9921888 L12.6358093,22 C12.7003216,22 12.7646298,21.9915879 12.8193427,21.9765663 L13.587978,21.7760779 C13.7717155,21.726807 13.9297298,21.6066342 14.0211903,21.4470045 C14.1153047,21.2851717 14.1400072,21.0888894 14.0881524,20.9078289 L13.901965,20.2653047 L14.0934604,19.8843567 L14.7020399,19.5250399 C14.8588292,19.623181 15.0484872,19.6566291 15.2297749,19.6201767 L15.4518931,19.7405499 C15.5829592,19.8096493 15.7328074,19.8368884 15.880614,19.8184619 C15.8967421,19.8244706 15.9132784,19.8298784 15.9302231,19.8346853 L16.5759584,20.0193509 L17.5460926,20.2412701 C17.6351032,20.2631015 17.7296259,20.2675079 17.819249,20.2548897 L18.2916586,20.1887946 C18.3380013,20.1825857 18.3825066,20.1715699 18.440486,20.1519416 L19.071114,19.9236132 C19.2499518,19.8583193 19.3969419,19.7237257 19.4734992,19.5548828 C19.5194335,19.454939 19.5406654,19.3459823 19.5361741,19.2376264 L19.8481196,19.0411438 L20.5683706,18.4549005 C20.7617033,18.296072 20.8541846,18.0533228 20.8166205,17.8129771 L20.8560219,17.7580982 C21.0140362,17.5530031 21.044455,17.2798102 20.9350291,17.0454731" fill="#FFFFFF"></path>
    </g>
</svg>
