<?xml version="1.0" encoding="UTF-8"?>
<svg aria-hidden="true" focusable="false" width="20px" height="20px" viewBox="0 0 20 20" version="1.1" xmlns="http://www.w3.org/2000/svg" xmlns:xlink="http://www.w3.org/1999/xlink">
    <g id="Page-1" stroke="none" stroke-width="1" fill="none" fill-rule="evenodd">
        <g id="account-pin-circle-line" transform="translate(-2.000000, -2.000000)" fill="#FFFFFF">
            <path d="M21.95,13 C21.4936177,17.5258172 18.0416712,21.1741492 13.548,21.88 C15.2924509,19.2313892 16.3018838,16.1668545 16.473,13 L21.95,13 Z M7.527,13 C7.69811623,16.1668545 8.70754912,19.2313892 10.452,21.88 C5.95832884,21.1741492 2.5063823,17.5258172 2.05,13 L7.527,13 Z M14.47,13 C14.3054051,15.699484 13.4553004,18.3124373 12,20.592 C10.5446996,18.3124373 9.69459491,15.699484 9.53,13 L14.47,13 Z M10.452,2.12 C8.70754912,4.76861081 7.69811623,7.83314552 7.527,11 L2.05,11 C2.5063823,6.47418283 5.95832884,2.82585084 10.452,2.12 Z M12,3.408 C13.4553004,5.68756269 14.3054051,8.300516 14.47,11 L9.53,11 C9.69459491,8.300516 10.5446996,5.68756269 12,3.408 Z M13.548,2.12 C18.0416712,2.82585084 21.4936177,6.47418283 21.95,11 L16.473,11 C16.3018838,7.83314552 15.2924509,4.76861081 13.548,2.12 Z" id="🎨-couleur-icône"></path>
        </g>
    </g>
</svg>
