<?xml version="1.0" encoding="UTF-8"?>
<svg aria-hidden="true" focusable="false" width="80px" height="80px" viewBox="0 0 80 80" version="1.1" xmlns="http://www.w3.org/2000/svg" xmlns:xlink="http://www.w3.org/1999/xlink">
    <g id="human-cooperation" stroke="none" stroke-width="1" fill="none" fill-rule="evenodd">
        <path d="M56,77 C55.4485999,77 55,76.5514001 55,76 C55,75.4485529 55.4485999,75 56,75 C56.5514001,75 57,75.4485529 57,76 C57,76.5514001 56.5514001,77 56,77 Z M8,65 C7.44859989,65 7,64.5514001 7,64 C7,63.4485529 7.44859989,63 8,63 C8.55140011,63 9,63.4485529 9,64 C9,64.5514001 8.55140011,65 8,65 Z M76,58 C75.4485999,58 75,57.5514001 75,57 C75,56.4485529 75.4485999,56 76,56 C76.5514001,56 77,56.4485529 77,57 C77,57.5514001 76.5514001,58 76,58 Z M65,10 C64.4485999,10 64,9.55140011 64,9 C64,8.4485529 64.4485999,8 65,8 C65.5514001,8 66,8.4485529 66,9 C66,9.55140011 65.5514001,10 65,10 Z M24,4 C23.4485999,4 23,3.55140011 23,3 C23,2.4485529 23.4485999,2 24,2 C24.5514001,2 25,2.4485529 25,3 C25,3.55140011 24.5514001,4 24,4 Z" id="Couleur-décorative" fill="#ECECFE"></path>
        <path d="M24.0468245,12.1348771 L24.2791727,12.1469339 L25.5269158,12.2486585 L27.7325105,12.44598 L30.3380954,12.6968957 L33.8823085,13.0572363 L34.432888,13.1146484 C36.9969477,13.3503299 38.5707936,14.2457756 39.0961438,15.6809047 C39.5129211,16.8194389 39.1302333,18.1564054 38.3760391,18.7892495 C38.0548463,19.0587623 37.7714981,19.2179215 37.2894245,19.3644731 L36.9744407,19.4516731 C36.917338,19.4662149 36.857775,19.4808261 36.795515,19.4956045 L36.3876987,19.5870629 L34.4643112,19.9803492 L34.2220655,20.0318771 L34.3575546,20.1023843 L34.602944,20.2355225 L35.0713158,20.4990669 C35.5496084,20.7752092 35.7134835,21.3867996 35.4373412,21.8650923 C35.1611988,22.3433849 34.5496084,22.50726 34.0713158,22.2311177 L33.8577574,22.1094123 L33.4117214,21.8645987 L31.8779454,21.0624367 L31.1920665,20.6968168 C31.0786731,20.6355483 30.9651843,20.5737956 30.8507668,20.5110814 L30.1464534,20.1194391 L29.3798625,19.6818065 C28.9015699,19.4056642 28.7376947,18.7940737 29.0138371,18.3157811 C29.2899795,17.8374885 29.9015699,17.6736133 30.3798625,17.9497557 L31.1265469,18.3760434 C31.2447517,18.4426799 31.3603888,18.5074275 31.4742888,18.5707617 L31.610539,18.6437429 C31.7114605,18.5732264 31.8271877,18.5202918 31.9543404,18.4903972 L32.5011324,18.3635358 L33.5450612,18.1312834 L34.314259,17.9686297 L35.8958659,17.6470133 L36.3423729,17.5478855 L36.5641772,17.4915375 L36.7365707,17.4398597 C36.7617226,17.4314874 36.7852188,17.4231982 36.8072606,17.4149366 L36.9236711,17.3652505 L37.0148486,17.3135498 L37.0904639,17.2571606 C37.2102047,17.1566862 37.3402586,16.702327 37.2180261,16.3684174 C37.0122664,15.8063321 36.2001299,15.3240358 34.4880982,15.1306655 L31.1048541,14.7833459 L29.2402158,14.5987592 L27.1612337,14.4016368 L25.0360018,14.2143983 L24.0769619,14.138181 L23.9215284,14.1407432 L23.8053294,14.1523409 L23.6076444,14.1862081 L23.4576257,14.2207212 L23.2909139,14.265546 L23.0055902,14.3535495 L22.5498519,14.5130873 L21.9947852,14.7256537 L21.3259207,14.9964851 L20.0776015,15.5234337 L17.8059474,16.509872 L17.6979318,16.5473951 L17.6246681,16.5652327 L17.5478962,16.5764052 C17.5346892,16.5776679 17.5212466,16.5786199 17.5075236,16.5792447 L17.4214627,16.5789361 L17.3265247,16.5699845 L17.2205621,16.5515989 L17.1014272,16.5229881 L16.8933292,16.4591691 L16.7318682,16.4015343 L16.4502143,16.290471 L16.2330049,16.1988677 L15.7182656,15.9699545 L14.9020941,15.589955 L12.5664145,14.4701232 C12.0689257,14.230283 11.8600601,13.6325598 12.0999003,13.1350709 C12.3397404,12.6375821 12.9374637,12.4287166 13.4349525,12.6685567 L15.1877431,13.5048785 L15.8991373,13.8369886 L16.6760171,14.1903409 L17.1474296,14.3956356 L17.407454,14.5010226 L19.4276677,13.6237287 L20.5652043,13.1418887 L21.1407119,12.9064305 L21.7999871,12.6496171 L22.088704,12.5439412 L22.4773709,12.4116486 L22.8199401,12.3084834 L23.0267054,12.2545892 L23.2189763,12.2116919 L23.3991503,12.179012 L23.5696247,12.15577 L23.7327969,12.1411865 C23.759517,12.1394342 23.7860327,12.1380101 23.8123939,12.1368981 L24.0468245,12.1348771 Z M29.0546215,35.6296119 C28.7982036,36.0737408 28.2525473,36.2467648 27.7929568,36.0481215 L27.6885961,35.9956373 L24.75,34.2990381 C24.2717074,34.0228957 24.1078322,33.4113053 24.3839746,32.9330127 C24.6403925,32.4888838 25.1860488,32.3158598 25.6456393,32.5145031 L25.75,32.5669873 L28.6885961,34.2635865 C29.1668887,34.5397289 29.3307639,35.1513193 29.0546215,35.6296119 Z M22.4849249,38.2484276 C22.228507,38.6925564 21.6828507,38.8655804 21.2232602,38.6669371 L21.1188995,38.614453 L16.6430281,36.0303074 C16.4917728,35.9429801 16.2862234,35.7403725 16.0423881,35.4456534 L15.8243836,35.1710195 C15.7866113,35.1216677 15.748151,35.0705711 15.7090493,35.0177973 L15.4671168,34.6815689 L15.2120325,34.3083303 L14.9460367,33.9013239 L14.6713696,33.4637918 C14.6249935,33.3885061 14.5783496,33.3120836 14.5314843,33.2345918 L14.2480105,32.7573506 L13.9614659,32.2576894 L13.6740907,31.7388506 C13.6262501,31.6509595 13.5784682,31.5624043 13.5307917,31.4732528 L13.246371,30.9317267 C13.1993028,30.8404597 13.1524334,30.7487313 13.1058094,30.6566091 L12.8293836,30.099691 L12.5610881,29.5365643 L12.303163,28.9704713 L12.0578486,28.4046543 C11.9784278,28.2164549 11.9014821,28.0288418 11.827385,27.8423556 L11.7036258,27.5234326 L10.7464075,26.7963108 L8.73188847,25.2893726 L8.36723707,25.007428 L8.15991583,24.8381843 L8.06995393,24.7571745 L7.98197013,24.6701802 L7.94967949,24.6281566 L7.87619483,24.4989822 L7.78840362,24.3330005 C7.60450463,23.8122322 7.87759114,23.2409865 8.39835942,23.0570875 C8.75889131,22.9297729 9.14361652,23.0214867 9.40725794,23.2627788 L9.4690793,23.3257806 L9.74855179,23.5486094 L12.6848321,25.7538262 L13.0033374,26.0029354 L13.1679226,26.1411042 L13.2961316,26.264064 L13.328022,26.304864 L13.3710595,26.3761081 L13.4895349,26.5922558 C14.2082198,28.5329183 15.1714815,30.4476974 16.2294659,32.1668931 L16.4006463,32.4418987 L16.7364116,32.9631338 C16.9012435,33.2130706 17.0606469,33.4458973 17.2107863,33.6567145 L17.4575499,33.9944649 L17.6331126,34.2214128 L17.720717,34.3293415 C17.7250079,34.3370851 17.7205567,34.339627 17.6870173,34.3224898 L22.1188995,36.8824022 C22.5971921,37.1585445 22.7610673,37.7701349 22.4849249,38.2484276 Z M25,40 C25.5522847,40 26,39.5522847 26,39 C26,38.4477153 25.5522847,38 25,38 C24.4477153,38 24,38.4477153 24,39 C24,39.5522847 24.4477153,40 25,40 Z M75.8960804,26.6000118 C76.2273284,27.0419317 76.1376112,27.6687081 75.6956914,27.9999562 L73.9053973,29.354062 L72.9685906,30.0797795 L72.5307067,30.4288067 L72.1692053,30.7306054 L72.0674276,31.5640458 C72.0511722,31.6906782 72.0347344,31.8154256 72.0181091,31.9382957 L71.9160664,32.6530521 C71.5681512,34.9608972 71.1411478,36.5240453 70.5941938,37.4043909 L70.51447,37.526636 L69.8025024,38.556351 L68.9807853,39.7284308 L67.5427713,41.7530204 L65.2427541,44.9487694 L64.599547,45.8361542 C63.1134109,47.9388543 61.5510093,48.854122 60.045476,48.5915241 C58.8510877,48.3831966 57.8845847,47.383296 57.7136227,46.4137227 C57.6335334,45.9595134 57.6461865,45.611725 57.7963497,45.0326182 L57.8921634,44.6917711 L58.0168663,44.2928627 L58.6030655,42.5318771 L58.4849073,42.6077685 L58.0151195,42.8926851 C57.9383293,42.9381669 57.8617327,42.9829662 57.7844896,43.0275625 C57.306197,43.3037049 56.6946066,43.1398297 56.4184642,42.6615371 C56.1423218,42.1832445 56.306197,41.5716541 56.7844896,41.2955117 L56.9966687,41.1714175 L57.4317015,40.9075457 L59.2241588,39.7728218 C59.3338114,39.704453 59.4431011,39.6367264 59.5528578,39.5691591 L60.2236426,39.1618054 L60.9454754,38.7351008 C61.0722481,38.6610833 61.2028078,38.5852938 61.3379845,38.5072495 C61.8162771,38.2311072 62.4278675,38.3949823 62.7040099,38.8732749 C62.9801522,39.3515676 62.8162771,39.963158 62.3379845,40.2393004 L61.5954662,40.6728042 L61.207277,40.9053026 C61.2009354,40.9375099 61.1929554,40.9697058 61.1832858,41.0017946 C61.0730571,41.3675912 60.9655884,41.7165179 60.8588177,42.0559669 L60.5385364,43.0532728 L59.8907926,44.9980975 L59.8055086,45.2731981 L59.7434053,45.4934602 L59.7019628,45.6685962 C59.6966375,45.6945646 59.692068,45.7190575 59.6882019,45.7422771 L59.6730261,45.8679346 L59.6722114,45.9727469 L59.6832382,46.0664263 C59.7103813,46.2203621 60.0388409,46.5601717 60.3891313,46.62127 C60.9787914,46.7241196 61.8025404,46.2619369 62.8260199,44.8759591 L65.101805,41.725597 L66.8925517,39.2177038 L67.9649038,37.6948151 L68.6986645,36.6376879 C68.7552127,36.5555659 68.8106111,36.4749372 68.8648596,36.3958019 C69.0246382,36.1627241 69.1831362,35.7849452 69.3370433,35.2674795 L69.4389315,34.9018631 L69.5392416,34.4951881 L69.6377555,34.0477846 L69.7342552,33.5599829 L69.8285229,33.0321131 L69.9203405,32.4645053 L70.0094901,31.8574896 C70.0241139,31.7530547 70.0386175,31.6469915 70.0529963,31.539307 L70.1377352,30.8737986 L70.2192612,30.1697077 C70.2235371,30.1309759 70.2282594,30.0941458 70.2344027,30.0583461 L70.2580697,29.9531674 L70.2814715,29.8839018 L70.332341,29.7774121 L70.3792915,29.7024327 L70.4386933,29.6224574 L70.5549317,29.4897392 L70.6530408,29.3904983 L70.8354609,29.221622 L71.1535947,28.9509613 L71.8194622,28.4223191 L73.132225,27.4234664 L74.496136,26.3996228 C74.9380558,26.0683748 75.5648323,26.158092 75.8960804,26.6000118 Z M66.3271011,19.8272398 L63.7839525,20.9493452 L63.3001151,21.1502742 L63.1038234,21.221247 C62.9239272,21.2789671 62.8335939,21.3020754 62.6715753,21.2850126 L62.5644719,21.26991 C60.5301638,20.925737 58.3980328,20.8045694 56.3890175,20.861772 L56.0666141,20.8725959 L55.449996,20.9028442 L54.8800517,20.9432731 C54.7895564,20.9507739 54.7014602,20.9586346 54.6159905,20.966823 L54.2021173,21.0115383 L53.9192167,21.0499802 L53.7830116,21.0717292 C53.774379,21.0715314 53.7745879,21.0663683 53.8062625,21.0458835 L47.4999781,24.6856697 C47.0216854,24.9618121 46.410095,24.7979369 46.1339527,24.3196443 C45.8775347,23.8755155 46.0005197,23.3164513 46.4023451,23.0177559 L46.4999781,22.9536189 L52.8492637,19.2878571 C53.0477414,19.173266 53.4657533,19.0769355 54.0394324,19.0040581 L54.4442461,18.9590047 C54.5153251,18.9520938 54.5881506,18.9454868 54.6626352,18.9391907 L55.1287496,18.9052018 L55.6304745,18.8790167 L56.1636049,18.8609773 C56.2548434,18.8586685 56.3472153,18.8567134 56.4406329,18.855119 L57.0129866,18.849939 L57.6062325,18.8537594 L58.2161655,18.8669219 L58.8385804,18.8897686 L59.4692719,18.9226413 L60.1040348,18.9658818 L60.738664,19.0198321 L61.3689541,19.084834 C61.6823136,19.1201548 61.9924689,19.1597482 62.2970548,19.2038065 L62.6481486,19.2574753 L62.8646447,19.1672176 L65.6291402,17.9502905 L65.8995886,17.8361036 L66.1104834,17.7512718 L66.2478421,17.7005676 L66.3077648,17.6806931 C66.5268566,17.6115068 66.6173015,17.5920181 66.8585731,17.6369545 C67.4015212,17.7380774 67.7596912,18.2602001 67.6585683,18.8031482 C67.5574453,19.3460963 67.0353226,19.7042663 66.4923746,19.6031433 C66.5597787,19.6156972 66.6018097,19.6278038 66.6301663,19.6376546 L66.685912,19.6586311 C66.7049721,19.6639272 66.7195874,19.6600787 66.7692413,19.6409818 L66.3271011,19.8272398 Z M51,28 C51.5522847,28 52,27.5522847 52,27 C52,26.4477153 51.5522847,26 51,26 C50.4477153,26 50,26.4477153 50,27 C50,27.5522847 50.4477153,28 51,28 Z" id="🎨Couleur-mineure-(Indice--main)" fill="#E1000F"></path>
        <path d="M40.5,24 C42.3685634,24 43.8951264,25.4642776 43.9948211,27.3079648 L43.9950888,27.3363963 C44.451168,27.1206897 44.9615506,27 45.5,27 C47.3660194,27 48.8949568,28.4494811 48.9948127,30.2799176 L49,30.4705882 L48.9991027,31.3345011 C49.4541616,31.1199828 49.9631296,31 50.5,31 C52.3660194,31 53.8949568,32.4494811 53.9948127,34.2799176 L54,34.4705882 L54,53 C54,55.3747385 53.439123,57.1198146 51.8346038,59.5508507 C51.5655259,59.9585356 51.1504183,60.4298146 50.5591581,61.0193225 L50.1385573,61.4304427 L49.7354201,61.8130346 L48.0993276,63.328435 L48,63.422 L48,67 C48,67.5128358 47.6139598,67.9355072 47.1166211,67.9932723 L47,68 C46.4871642,68 46.0644928,67.6139598 46.0067277,67.1166211 L46,67 L46,62.5857864 L46.4886361,62.1006917 L46.9985275,61.6198219 L48.366238,60.3551798 L48.736308,60.0040785 L49.1069492,59.6423412 L49.4287119,59.3158322 C49.7754663,58.955419 50.0217812,58.666743 50.1653962,58.4491493 C51.4912446,56.4403323 51.953711,55.1072618 51.996643,53.2909679 L52,53 L52,34.4705882 C52,33.6610712 51.3310589,33 50.5,33 C49.7178269,33 49.0792599,33.5855856 49.0068409,34.3293776 L49,34.4705882 L49,45 C49,45.5522847 48.5522847,46 48,46 C47.4871642,46 47.0644928,45.6139598 47.0067277,45.1166211 L47,45 L47,30.4705882 C47,29.6610712 46.3310589,29 45.5,29 C44.7178269,29 44.0792599,29.5855856 44.0068409,30.3293776 L44,30.4705882 L44,45 C44,45.5522847 43.5522847,46 43,46 C42.4871642,46 42.0644928,45.6139598 42.0067277,45.1166211 L42,45 L42,27.5 C42,26.6715729 41.3284271,26 40.5,26 C39.7203039,26 39.0795513,26.5948881 39.0068666,27.35554 L39,27.5 L39,45 C39,45.5522847 38.5522847,46 38,46 C37.4871642,46 37.0644928,45.6139598 37.0067277,45.1166211 L37,45 L37,32.5 C37,31.6715729 36.3284271,31 35.5,31 C34.7203039,31 34.0795513,31.5948881 34.0068666,32.35554 L34,32.5 L34,50 L33.9982643,50.0510461 C33.9973475,50.0690843 33.995945,50.0870996 33.9940574,50.1050706 L34,50 C34,50.1403917 33.9710693,50.2740263 33.9188445,50.3952672 C33.8764752,50.4932269 33.8177888,50.5861661 33.7427629,50.6693093 C33.7268451,50.6872275 33.7100253,50.704588 33.6926004,50.7213233 C33.6899172,50.72364 33.6872135,50.7262097 33.6844923,50.7287678 L33.6677918,50.7443603 C33.6473652,50.762698 33.6261796,50.780207 33.6042878,50.7968345 L33.6844923,50.7287678 C33.6458002,50.7651407 33.6049774,50.7978355 33.562455,50.8268654 C33.5450556,50.8388091 33.5270577,50.8502589 33.5086816,50.8611373 C33.4940812,50.8697575 33.4793788,50.877968 33.4645252,50.885777 C33.4455206,50.8957743 33.426219,50.9051375 33.4065835,50.9138864 C33.3886479,50.9218678 33.3705427,50.9292962 33.3522814,50.9361694 C33.3374646,50.9417666 33.3222105,50.947095 33.3067929,50.9520594 C33.2849598,50.9590599 33.263476,50.965172 33.2418526,50.9705502 C33.2247352,50.9748209 33.2067307,50.9787818 33.1885516,50.9822505 C33.1694855,50.9859073 33.1510613,50.9888884 33.1325846,50.9913524 C33.1073664,50.9946389 33.0814505,50.9970724 33.0552664,50.9984987 C33.0430825,50.9992999 33.0314058,50.9997353 33.0197269,50.9999672 L33,51 L33,51 L32.9506745,50.998968 C32.9319681,50.9980546 32.9132855,50.9966188 32.8946504,50.9946614 L33,51 C32.9455396,51 32.8920959,50.9956465 32.8399981,50.9872685 C32.8205244,50.984279 32.8005703,50.9804573 32.7807289,50.9760269 C32.7652559,50.97242 32.750142,50.9686575 32.7351683,50.9645557 C32.6764233,50.9487175 32.6184035,50.9270432 32.5624407,50.8998671 C32.528919,50.8831361 32.4958018,50.8646026 32.4639118,50.844312 C32.4104927,50.8107821 32.3615273,50.7728569 32.315703,50.729827 C32.3052201,50.7193733 32.2947108,50.7090715 32.284432,50.6985438 C32.2798441,50.6944646 32.2753812,50.6898067 32.2709532,50.6850964 L31.8001428,50.1784873 L31.3470113,49.6784067 L30.8891297,49.1599182 L30.404069,48.5980859 L29.8694004,47.9679736 L28.5353583,46.3791752 L28.002234,45.759581 L27.6024431,45.3124458 L27.3225516,45.0211041 L27.22337,44.9286477 L27.1491255,44.86889 C27.128347,44.8541891 27.1114447,44.8445908 27.0981389,44.8397479 C26.9512551,44.7862866 26.4927415,44.9008362 26.2646837,45.1736474 C25.8807833,45.6328832 25.8691707,46.5773622 26.557723,48.1567103 L28.5343558,52.5563389 L29.7506409,55.2149483 L30.4902605,56.8005995 L30.8823346,57.6265775 C30.9706315,57.8111256 31.1135594,58.0285467 31.3104453,58.2774379 L31.5252922,58.536767 L31.7759615,58.8167644 L32.0623035,59.1171181 C32.1636797,59.2205942 32.2709764,59.3274109 32.3841687,59.4375165 L32.7414075,59.7776477 L33.1338703,60.1371999 L33.5614076,60.5158614 L34.0238696,60.9133203 L34.5211069,61.3292648 L35.3318393,61.9871601 L35.9995585,62.5156441 L35.9995585,67.0001625 C35.9995585,67.5524473 35.5518432,68.0001625 34.9995585,68.0001625 C34.4897572,68.0001625 34.0690565,67.6186774 34.0073499,67.1256004 L33.9995585,67.0001625 L33.9993336,63.4825577 L33.7407384,63.2746599 C33.5254294,63.1007009 33.3173896,62.930412 33.1165876,62.7637272 L32.5358629,62.2744197 C32.1631464,61.9553352 31.8192543,61.650404 31.5039338,61.3590993 L31.0523502,60.9322963 C30.1202112,60.0294142 29.4885255,59.2676801 29.1486171,58.6290101 L29.0781984,58.4897649 L28.5424229,57.3583254 L27.7765047,55.7102958 L26.3291959,52.5343836 L24.8394061,49.2125322 C23.7614824,46.8741506 23.7500381,45.0634373 24.7302213,43.8909061 C25.5078322,42.9606993 26.8570231,42.6236334 27.7821792,42.9603626 L27.9295768,43.0191672 C28.0016654,43.0507637 28.0718778,43.0861508 28.1426402,43.1275761 L28.2856171,43.2191433 C28.358191,43.2696183 28.4329323,43.3276297 28.5122672,43.395425 L28.6777806,43.5447267 C28.7066265,43.5720065 28.7361626,43.6005398 28.7664786,43.63041 L28.9584534,43.8263387 L29.1734604,44.0583463 L29.5485917,44.482746 L30.169636,45.2121798 L31.3916769,46.670734 L31.9993606,47.384 L32,32.5 C32,30.5670034 33.5670034,29 35.5,29 C36.0368117,29 36.5453971,29.1208514 37.0000333,29.3368314 L37,27.5 C37,25.5670034 38.5670034,24 40.5,24 Z" id="Couleur-majeure" fill="#000091"></path>
    </g>
</svg>
