<?xml version="1.0" encoding="UTF-8"?>
<svg aria-hidden="true" focusable="false" width="68px" height="74px" viewBox="0 0 68 74" version="1.1" xmlns="http://www.w3.org/2000/svg" xmlns:xlink="http://www.w3.org/1999/xlink">
    <g id="Page-1" stroke="none" stroke-width="1" fill="none" fill-rule="evenodd">
        <g id="DESKTOP_360_UKRAINE_ACCUEIL_ACCORDEONS_FERMES" transform="translate(-1060.000000, -2909.000000)">
            <g id="Group-30" transform="translate(1038.000000, 2420.000000)">
                <g id="Group-2" transform="translate(0.000000, 469.000000)">
                    <g id="Group" transform="translate(16.000000, 16.000000)">
                        <path d="M73,18 C72.4485999,18 72,17.5514001 72,17 C72,16.4485529 72.4485999,16 73,16 C73.5514001,16 74,16.4485529 74,17 C74,17.5514001 73.5514001,18 73,18 Z M7,18 C6.44859989,18 6,17.5514001 6,17 C6,16.4485529 6.44859989,16 7,16 C7.55140011,16 8,16.4485529 8,17 C8,17.5514001 7.55140011,18 7,18 Z M11,68 C10.4485999,68 10,67.5514001 10,67 C10,66.4485529 10.4485999,66 11,66 C11.5514001,66 12,66.4485529 12,67 C12,67.5514001 11.5514001,68 11,68 Z M19,6 C18.4485999,6 18,5.55140011 18,5 C18,4.4485529 18.4485999,4 19,4 C19.5514001,4 20,4.4485529 20,5 C20,5.55140011 19.5514001,6 19,6 Z M55,78 C54.4485999,78 54,77.5514001 54,77 C54,76.4485529 54.4485999,76 55,76 C55.5514001,76 56,76.4485529 56,77 C56,77.5514001 55.5514001,78 55,78 Z" id="Couleur-décorative" fill="#ECECFE"></path>
                        <path d="M55,37 C60.5150245,37 65,41.4848301 65,47 C65,49.5658966 64.0290904,51.9088747 62.4352872,53.6809184 L68.330127,63.8923048 C69.1585541,65.3271827 68.6669287,67.1619539 67.2320508,67.9903811 C65.8484186,68.7892215 64.0929467,68.3606151 63.2265214,67.0424152 L63.1339746,66.8923048 L57.2721182,56.7397557 C56.5419651,56.9099767 55.7813171,57 55,57 C49.4851142,57 45,52.5148858 45,47 C45,41.4848301 49.4849755,37 55,37 Z M60.9197685,55.0555418 C60.384169,55.4501509 59.807953,55.7926916 59.1986489,56.0756355 L64.8660254,65.8923048 C65.1421678,66.3705975 65.7537582,66.5344726 66.2320508,66.2583302 C66.6761797,66.0019123 66.8492037,65.4562561 66.6505604,64.9966656 L66.5980762,64.8923048 Z M55,39 C50.5895305,39 47,42.5894141 47,47 C47,51.4103163 50.5896837,55 55,55 C59.4103163,55 63,51.4103163 63,47 C63,42.5894141 59.4104695,39 55,39 Z M56.2682495,41.0366505 C58.607783,41.6881054 60.401368,43.5230387 60.8761991,45.7982396 C60.9890292,46.3388761 60.6422235,46.8686154 60.101587,46.9814454 C59.5609505,47.0942755 59.0312112,46.7474698 58.9183812,46.2068333 C58.5998143,44.6803881 57.3663819,43.4185208 55.7317505,42.9633495 C55.1997073,42.8151994 54.8885004,42.2637937 55.0366505,41.7317505 C55.1848006,41.1997073 55.7362063,40.8885004 56.2682495,41.0366505 Z" id="🎨Couleur-mineure-(Indice--main)" fill="#E1000F"></path>
                        <path d="M69,18 C69.5128358,18 69.9355072,18.3860402 69.9932723,18.8833789 L70,19 L70,57 C70,57.5522847 69.5522847,58 69,58 C68.4871642,58 68.0644928,57.6139598 68.0067277,57.1166211 L68,57 L68,28 L59,28 C58.4477153,28 58,27.5522847 58,27 C58,26.4871642 58.3860402,26.0644928 58.8833789,26.0067277 L59,26 L68,26 L68,20 L16,20 L16,26 L53,26 C53.5522847,26 54,26.4477153 54,27 C54,27.5128358 53.6139598,27.9355072 53.1166211,27.9932723 L53,28 L16,28 L16,64 L57,64 C57.5128358,64 57.9355072,64.3860402 57.9932723,64.8833789 L58,65 C58,65.5128358 57.6139598,65.9355072 57.1166211,65.9932723 L57,66 L15,66 C14.4871642,66 14.0644928,65.6139598 14.0067277,65.1166211 L14,65 L14,19 C14,18.4871642 14.3860402,18.0644928 14.8833789,18.0067277 L15,18 L69,18 Z M35,46 C35.5522847,46 36,46.4477153 36,47 C36,47.5128358 35.6139598,47.9355072 35.1166211,47.9932723 L35,48 L23,48 C22.4477153,48 22,47.5522847 22,47 C22,46.4871642 22.3860402,46.0644928 22.8833789,46.0067277 L23,46 L35,46 Z M37,40 C37.5522847,40 38,40.4477153 38,41 C38,41.5128358 37.6139598,41.9355072 37.1166211,41.9932723 L37,42 L23,42 C22.4477153,42 22,41.5522847 22,41 C22,40.4871642 22.3860402,40.0644928 22.8833789,40.0067277 L23,40 L37,40 Z M41,34 C41.5522847,34 42,34.4477153 42,35 C42,35.5128358 41.6139598,35.9355072 41.1166211,35.9932723 L41,36 L23,36 C22.4477153,36 22,35.5522847 22,35 C22,34.4871642 22.3860402,34.0644928 22.8833789,34.0067277 L23,34 L41,34 Z M19,22 C19.5514001,22 20,22.4485529 20,23 C20,23.5514001 19.5514001,24 19,24 C18.4485999,24 18,23.5514001 18,23 C18,22.4485529 18.4485999,22 19,22 Z M23,22 C23.5514001,22 24,22.4485529 24,23 C24,23.5514001 23.5514001,24 23,24 C22.4485999,24 22,23.5514001 22,23 C22,22.4485529 22.4485999,22 23,22 Z M27,22 C27.5514001,22 28,22.4485529 28,23 C28,23.5514001 27.5514001,24 27,24 C26.4485999,24 26,23.5514001 26,23 C26,22.4485529 26.4485999,22 27,22 Z M65,22 C65.5522847,22 66,22.4477153 66,23 C66,23.5128358 65.6139598,23.9355072 65.1166211,23.9932723 L65,24 L35,24 C34.4477153,24 34,23.5522847 34,23 C34,22.4871642 34.3860402,22.0644928 34.8833789,22.0067277 L35,22 L65,22 Z" id="Couleur-majeure" fill="#000091"></path>
                    </g>
                </g>
            </g>
        </g>
    </g>
</svg>
