<svg xmlns="http://www.w3.org/2000/svg" width="56" height="56" viewBox="0 0 56 56">
    <g fill="none" fill-rule="evenodd">
        <g>
            <g>
                <g>
                    <g>
                        <path fill="#DADAFE" d="M14.7 51.8c.386 0 .7.314.7.7 0 .386-.314.7-.7.7-.386 0-.7-.314-.7-.7 0-.386.314-.7.7-.7zm39.2-14c.386 0 .7.314.7.7 0 .386-.314.7-.7.7-.386 0-.7-.314-.7-.7 0-.386.314-.7.7-.7zM9.1 7c.386 0 .7.314.7.7 0 .386-.314.7-.7.7-.386 0-.7-.314-.7-.7 0-.386.314-.7.7-.7zm32.2-4.2c.386 0 .7.314.7.7 0 .386-.314.7-.7.7-.386 0-.7-.314-.7-.7 0-.386.314-.7.7-.7z" transform="translate(-857 -5113) translate(527 5045) translate(306 52) translate(24 16)"/>
                        <path fill="#04A761" d="M27.3 43.4c.359 0 .655.27.695.618L28 44.1v2.8c0 .387-.313.7-.7.7-.359 0-.655-.27-.695-.618L26.6 46.9v-2.8c0-.387.313-.7.7-.7zm-3.5 3.5c0 .359-.27.655-.618.695l-.082.005c-.359 0-.655-.27-.695-.618L22.4 46.9v-7.7h-.7c-.354 0-.647-.263-.694-.605L21 38.5v-2.8c0-.387.313-.7.7-.7h11.2c.387 0 .7.313.7.7v2.8c0 .387-.313.7-.7.7h-.7v7.7c0 .387-.313.7-.7.7-.359 0-.655-.27-.695-.618L30.8 46.9v-7.7H28v2.1c0 .387-.313.7-.7.7-.359 0-.655-.27-.695-.618L26.6 41.3v-2.1h-2.8v7.7zm8.4-10.5h-9.8v1.4h9.8v-1.4z" transform="translate(-857 -5113) translate(527 5045) translate(306 52) translate(24 16)"/>
                        <path fill="#000091" d="M39.9 8.4c.387 0 .7.313.7.7v2.8c0 .387-.313.7-.7.7h-2.1v7h10.5c.354 0 .647.263.694.605L49 20.3v2.8c0 .387-.313.7-.7.7l-.7-.001V31.5c0 .387-.313.7-.7.7-.359 0-.655-.27-.695-.618L46.2 31.5v-7.7h-8.4v22.4h8.4v-7.7c0-.359.27-.655.618-.695l.082-.005c.359 0 .655.27.695.618l.005.082v8.4c0 .359-.27.655-.618.695l-.082.005H7.7c-.359 0-.655-.27-.695-.618L7 46.9v-4.2c0-.387.313-.7.7-.7.359 0 .655.27.695.618l.005.082v3.5h8.4V23.8H8.4v13.3c0 .359-.27.655-.618.695L7.7 37.8c-.359 0-.655-.27-.695-.618L7 37.1V23.799l-.7.001c-.354 0-.647-.263-.694-.605L5.6 23.1v-2.8c0-.387.313-.7.7-.7h10.5v-7h-2.1c-.354 0-.647-.263-.694-.605L14 11.9V9.1c0-.387.313-.7.7-.7zm-3.501 4.2H18.2v33.6h18.2l-.001-33.6zM14.7 33.6c.387 0 .7.313.7.7v8.4c0 .387-.313.7-.7.7h-4.2c-.387 0-.7-.313-.7-.7v-8.4c0-.387.313-.7.7-.7zm29.4 0c.387 0 .7.313.7.7v4.2l-.001.012.001 4.188c0 .354-.263.647-.605.694l-.095.006h-4.2c-.387 0-.7-.313-.7-.7v-8.4c0-.387.313-.7.7-.7zm-30.101 5.6H11.2V42H14l-.001-2.8zm29.401 0h-2.8V42h2.8v-2.8zM14 35h-2.8v2.8h2.799L14 35zm29.4 0h-2.8v2.8h2.8V35zm-11.9-5.6c.387 0 .7.313.7.7v1.4c0 .387-.313.7-.7.7h-8.4c-.387 0-.7-.313-.7-.7v-1.4c0-.387.313-.7.7-.7zm-16.8-4.2c.387 0 .7.313.7.7v5.6c0 .387-.313.7-.7.7h-4.2c-.387 0-.7-.313-.7-.7v-5.6c0-.387.313-.7.7-.7zm29.4 0c.387 0 .7.313.7.7v5.6c0 .387-.313.7-.7.7h-4.2c-.387 0-.7-.313-.7-.7v-5.6c0-.387.313-.7.7-.7zM14 26.6h-2.8v4.2H14v-4.2zm29.4 0h-2.8v4.2h2.8v-4.2zm-14.7-9.8c.387 0 .7.313.7.7v2.1h2.1c.359 0 .655.27.695.618l.005.082v2.8c0 .387-.313.7-.7.7h-2.1v2.1c0 .359-.27.655-.618.695l-.082.005h-2.8c-.387 0-.7-.313-.7-.7v-2.1h-2.1c-.359 0-.655-.27-.695-.618L22.4 23.1v-2.8c0-.387.313-.7.7-.7h2.1v-2.1c0-.359.27-.655.618-.695l.082-.005zm-.7 1.4h-1.4v2.1c0 .359-.27.655-.618.695L25.9 21h-2.1v1.4h2.1c.359 0 .655.27.695.618l.005.082v2.1H28v-2.1c0-.359.27-.655.618-.695l.082-.005h2.1V21h-2.1c-.359 0-.655-.27-.695-.618L28 20.3v-2.1zM16.8 21H7v1.4h9.8V21zm30.8 0h-9.8v1.4h9.8V21zM39.2 9.8H15.4v1.4h23.8V9.8z" transform="translate(-857 -5113) translate(527 5045) translate(306 52) translate(24 16)"/>
                    </g>
                </g>
            </g>
        </g>
    </g>
</svg>
