<svg width="282" height="319" viewBox="0 0 282 319" xmlns="http://www.w3.org/2000/svg"><g fill="none" fill-rule="evenodd"><path d="M36.205 314.6c1.218 0 2.206.985 2.206 2.2 0 1.215-.988 2.2-2.206 2.2A2.203 2.203 0 0 1 34 316.8c0-1.215.987-2.2 2.205-2.2Zm16.173 0c1.218 0 2.205.985 2.205 2.2 0 1.215-.987 2.2-2.205 2.2a2.203 2.203 0 0 1-2.205-2.2c0-1.215.987-2.2 2.205-2.2Zm16.173 0c1.218 0 2.205.985 2.205 2.2 0 1.215-.987 2.2-2.205 2.2a2.203 2.203 0 0 1-2.206-2.2c0-1.215.988-2.2 2.206-2.2Zm16.172 0c1.218 0 2.206.985 2.206 2.2 0 1.215-.988 2.2-2.206 2.2a2.203 2.203 0 0 1-2.205-2.2c0-1.215.987-2.2 2.205-2.2Zm16.173 0c1.218 0 2.205.985 2.205 2.2 0 1.215-.987 2.2-2.205 2.2a2.203 2.203 0 0 1-2.206-2.2c0-1.215.988-2.2 2.206-2.2Zm16.172 0c1.218 0 2.206.985 2.206 2.2 0 1.215-.988 2.2-2.206 2.2a2.203 2.203 0 0 1-2.205-2.2c0-1.215.987-2.2 2.205-2.2Zm16.173 0c1.218 0 2.205.985 2.205 2.2 0 1.215-.987 2.2-2.205 2.2a2.203 2.203 0 0 1-2.205-2.2c0-1.215.987-2.2 2.205-2.2Zm16.173 0c1.218 0 2.205.985 2.205 2.2 0 1.215-.987 2.2-2.205 2.2a2.203 2.203 0 0 1-2.206-2.2c0-1.215.988-2.2 2.206-2.2Zm16.172 0c1.218 0 2.206.985 2.206 2.2 0 1.215-.988 2.2-2.206 2.2a2.203 2.203 0 0 1-2.205-2.2c0-1.215.987-2.2 2.205-2.2Zm16.173-.092c1.218 0 2.205.985 2.205 2.2 0 1.215-.987 2.2-2.205 2.2a2.203 2.203 0 0 1-2.205-2.2c0-1.215.987-2.2 2.205-2.2Zm16.173 0c1.218 0 2.205.985 2.205 2.2 0 1.215-.987 2.2-2.205 2.2a2.203 2.203 0 0 1-2.206-2.2c0-1.215.988-2.2 2.206-2.2Zm16.172 0c1.218 0 2.206.985 2.206 2.2 0 1.215-.988 2.2-2.206 2.2a2.203 2.203 0 0 1-2.205-2.2c0-1.215.987-2.2 2.205-2.2Zm16.173 0c1.218 0 2.205.985 2.205 2.2 0 1.215-.987 2.2-2.205 2.2a2.203 2.203 0 0 1-2.206-2.2c0-1.215.988-2.2 2.206-2.2Zm16.172 0c1.218 0 2.206.985 2.206 2.2 0 1.215-.988 2.2-2.206 2.2a2.203 2.203 0 0 1-2.205-2.2c0-1.215.987-2.2 2.205-2.2Zm16.173 0c1.218 0 2.205.985 2.205 2.2 0 1.215-.987 2.2-2.205 2.2a2.203 2.203 0 0 1-2.205-2.2c0-1.215.987-2.2 2.205-2.2Zm16.173 0c1.218 0 2.205.985 2.205 2.2 0 1.215-.987 2.2-2.205 2.2a2.203 2.203 0 0 1-2.206-2.2c0-1.215.988-2.2 2.206-2.2Zm-113.209-16.041c1.218 0 2.206.985 2.206 2.2 0 1.215-.988 2.2-2.206 2.2a2.203 2.203 0 0 1-2.205-2.2c0-1.215.987-2.2 2.205-2.2Zm16.173-.093c1.218 0 2.205.985 2.205 2.2 0 1.215-.987 2.2-2.205 2.2a2.203 2.203 0 0 1-2.205-2.2c0-1.215.987-2.2 2.205-2.2Zm16.173 0c1.218 0 2.205.985 2.205 2.2 0 1.215-.987 2.2-2.205 2.2a2.203 2.203 0 0 1-2.206-2.2c0-1.215.988-2.2 2.206-2.2Zm16.172 0c1.218 0 2.206.985 2.206 2.2 0 1.215-.988 2.2-2.206 2.2a2.203 2.203 0 0 1-2.205-2.2c0-1.215.987-2.2 2.205-2.2Zm-177.899.093c1.218 0 2.206.985 2.206 2.2 0 1.215-.988 2.2-2.206 2.2a2.203 2.203 0 0 1-2.205-2.2c0-1.215.987-2.2 2.205-2.2Zm32.346 0c1.218 0 2.205.985 2.205 2.2 0 1.215-.987 2.2-2.205 2.2a2.203 2.203 0 0 1-2.206-2.2c0-1.215.988-2.2 2.206-2.2Zm32.345 0c1.218 0 2.205.985 2.205 2.2 0 1.215-.987 2.2-2.205 2.2a2.203 2.203 0 0 1-2.206-2.2c0-1.215.988-2.2 2.206-2.2Zm32.345 0c1.218 0 2.205.985 2.205 2.2 0 1.215-.987 2.2-2.205 2.2a2.203 2.203 0 0 1-2.205-2.2c0-1.215.987-2.2 2.205-2.2Zm16.173 0c1.218 0 2.205.985 2.205 2.2 0 1.215-.987 2.2-2.205 2.2a2.203 2.203 0 0 1-2.206-2.2c0-1.215.988-2.2 2.206-2.2Zm97.035-.093c1.218 0 2.206.985 2.206 2.2 0 1.215-.988 2.2-2.206 2.2a2.203 2.203 0 0 1-2.205-2.2c0-1.215.987-2.2 2.205-2.2Zm-194.071.093c1.218 0 2.205.985 2.205 2.2 0 1.215-.987 2.2-2.205 2.2a2.203 2.203 0 0 1-2.205-2.2c0-1.215.987-2.2 2.205-2.2Zm210.244-.093c1.218 0 2.205.985 2.205 2.2 0 1.215-.987 2.2-2.205 2.2a2.203 2.203 0 0 1-2.205-2.2c0-1.215.987-2.2 2.205-2.2Zm-177.899.093c1.218 0 2.206.985 2.206 2.2 0 1.215-.988 2.2-2.206 2.2a2.203 2.203 0 0 1-2.205-2.2c0-1.215.987-2.2 2.205-2.2Zm194.072-.093c1.218 0 2.205.985 2.205 2.2 0 1.215-.987 2.2-2.205 2.2a2.203 2.203 0 0 1-2.206-2.2c0-1.215.988-2.2 2.206-2.2Zm-161.727.093c1.218 0 2.206.985 2.206 2.2 0 1.215-.988 2.2-2.206 2.2a2.203 2.203 0 0 1-2.205-2.2c0-1.215.987-2.2 2.205-2.2Zm113.209-.093c1.218 0 2.205.985 2.205 2.2 0 1.215-.987 2.2-2.205 2.2a2.203 2.203 0 0 1-2.206-2.2c0-1.215.988-2.2 2.206-2.2ZM68.55 282.334c1.218 0 2.205.984 2.205 2.2 0 1.214-.987 2.2-2.205 2.2a2.203 2.203 0 0 1-2.206-2.2c0-1.216.988-2.2 2.206-2.2Zm32.345 0c1.218 0 2.205.984 2.205 2.2 0 1.214-.987 2.2-2.205 2.2a2.203 2.203 0 0 1-2.206-2.2c0-1.216.988-2.2 2.206-2.2Zm16.172 0c1.218 0 2.206.984 2.206 2.2 0 1.214-.988 2.2-2.206 2.2a2.203 2.203 0 0 1-2.205-2.2c0-1.216.987-2.2 2.205-2.2Zm16.173 0c1.218 0 2.205.984 2.205 2.2 0 1.214-.987 2.2-2.205 2.2a2.203 2.203 0 0 1-2.205-2.2c0-1.216.987-2.2 2.205-2.2Zm16.173 0c1.218 0 2.205.984 2.205 2.2 0 1.214-.987 2.2-2.205 2.2a2.203 2.203 0 0 1-2.206-2.2c0-1.216.988-2.2 2.206-2.2Zm-113.209 0c1.218 0 2.206.984 2.206 2.2 0 1.214-.988 2.2-2.206 2.2a2.203 2.203 0 0 1-2.205-2.2c0-1.216.987-2.2 2.205-2.2Zm16.173 0c1.218 0 2.205.984 2.205 2.2 0 1.214-.987 2.2-2.205 2.2a2.203 2.203 0 0 1-2.205-2.2c0-1.216.987-2.2 2.205-2.2Zm32.345 0c1.218 0 2.206.984 2.206 2.2 0 1.214-.988 2.2-2.206 2.2a2.203 2.203 0 0 1-2.205-2.2c0-1.216.987-2.2 2.205-2.2Zm80.863 0c1.218 0 2.206.984 2.206 2.2 0 1.214-.988 2.2-2.206 2.2a2.203 2.203 0 0 1-2.205-2.2c0-1.216.987-2.2 2.205-2.2Zm16.173-.093c1.218 0 2.205.985 2.205 2.2 0 1.215-.987 2.2-2.205 2.2a2.203 2.203 0 0 1-2.205-2.2c0-1.215.987-2.2 2.205-2.2Zm16.173 0c1.218 0 2.205.985 2.205 2.2 0 1.215-.987 2.2-2.205 2.2a2.203 2.203 0 0 1-2.206-2.2c0-1.215.988-2.2 2.206-2.2Zm16.172 0c1.218 0 2.206.985 2.206 2.2 0 1.215-.988 2.2-2.206 2.2a2.203 2.203 0 0 1-2.205-2.2c0-1.215.987-2.2 2.205-2.2Zm16.173 0c1.218 0 2.205.985 2.205 2.2 0 1.215-.987 2.2-2.205 2.2a2.203 2.203 0 0 1-2.206-2.2c0-1.215.988-2.2 2.206-2.2Zm16.172 0c1.218 0 2.206.985 2.206 2.2 0 1.215-.988 2.2-2.206 2.2a2.203 2.203 0 0 1-2.205-2.2c0-1.215.987-2.2 2.205-2.2Zm16.173 0c1.218 0 2.205.985 2.205 2.2 0 1.215-.987 2.2-2.205 2.2a2.203 2.203 0 0 1-2.205-2.2c0-1.215.987-2.2 2.205-2.2Zm16.173 0c1.218 0 2.205.985 2.205 2.2 0 1.215-.987 2.2-2.205 2.2a2.203 2.203 0 0 1-2.206-2.2c0-1.215.988-2.2 2.206-2.2ZM36.205 266.2c1.218 0 2.206.985 2.206 2.2 0 1.215-.988 2.2-2.206 2.2A2.203 2.203 0 0 1 34 268.4c0-1.215.987-2.2 2.205-2.2Zm16.173 0c1.218 0 2.205.985 2.205 2.2 0 1.215-.987 2.2-2.205 2.2a2.203 2.203 0 0 1-2.205-2.2c0-1.215.987-2.2 2.205-2.2Zm16.173 0c1.218 0 2.205.985 2.205 2.2 0 1.215-.987 2.2-2.205 2.2a2.203 2.203 0 0 1-2.206-2.2c0-1.215.988-2.2 2.206-2.2Zm16.172 0c1.218 0 2.206.985 2.206 2.2 0 1.215-.988 2.2-2.206 2.2a2.203 2.203 0 0 1-2.205-2.2c0-1.215.987-2.2 2.205-2.2Zm16.173 0c1.218 0 2.205.985 2.205 2.2 0 1.215-.987 2.2-2.205 2.2a2.203 2.203 0 0 1-2.206-2.2c0-1.215.988-2.2 2.206-2.2Zm16.172 0c1.218 0 2.206.985 2.206 2.2 0 1.215-.988 2.2-2.206 2.2a2.203 2.203 0 0 1-2.205-2.2c0-1.215.987-2.2 2.205-2.2Zm16.173 0c1.218 0 2.205.985 2.205 2.2 0 1.215-.987 2.2-2.205 2.2a2.203 2.203 0 0 1-2.205-2.2c0-1.215.987-2.2 2.205-2.2Zm16.173 0c1.218 0 2.205.985 2.205 2.2 0 1.215-.987 2.2-2.205 2.2a2.203 2.203 0 0 1-2.206-2.2c0-1.215.988-2.2 2.206-2.2Zm16.172 0c1.218 0 2.206.985 2.206 2.2 0 1.215-.988 2.2-2.206 2.2a2.203 2.203 0 0 1-2.205-2.2c0-1.215.987-2.2 2.205-2.2Zm16.173-.092c1.218 0 2.205.985 2.205 2.2 0 1.215-.987 2.2-2.205 2.2a2.203 2.203 0 0 1-2.205-2.2c0-1.215.987-2.2 2.205-2.2Zm16.173 0c1.218 0 2.205.985 2.205 2.2 0 1.215-.987 2.2-2.205 2.2a2.203 2.203 0 0 1-2.206-2.2c0-1.215.988-2.2 2.206-2.2Zm16.172 0c1.218 0 2.206.985 2.206 2.2 0 1.215-.988 2.2-2.206 2.2a2.203 2.203 0 0 1-2.205-2.2c0-1.215.987-2.2 2.205-2.2Zm16.173 0c1.218 0 2.205.985 2.205 2.2 0 1.215-.987 2.2-2.205 2.2a2.203 2.203 0 0 1-2.206-2.2c0-1.215.988-2.2 2.206-2.2Zm16.172 0c1.218 0 2.206.985 2.206 2.2 0 1.215-.988 2.2-2.206 2.2a2.203 2.203 0 0 1-2.205-2.2c0-1.215.987-2.2 2.205-2.2Zm16.173 0c1.218 0 2.205.985 2.205 2.2 0 1.215-.987 2.2-2.205 2.2a2.203 2.203 0 0 1-2.205-2.2c0-1.215.987-2.2 2.205-2.2Zm16.173 0c1.218 0 2.205.985 2.205 2.2 0 1.215-.987 2.2-2.205 2.2a2.203 2.203 0 0 1-2.206-2.2c0-1.215.988-2.2 2.206-2.2Zm-242.59-16.041c1.218 0 2.206.985 2.206 2.2 0 1.215-.988 2.2-2.206 2.2a2.203 2.203 0 0 1-2.205-2.2c0-1.215.987-2.2 2.205-2.2Zm16.173 0c1.218 0 2.205.985 2.205 2.2 0 1.215-.987 2.2-2.205 2.2a2.203 2.203 0 0 1-2.205-2.2c0-1.215.987-2.2 2.205-2.2Zm16.173 0c1.218 0 2.205.985 2.205 2.2 0 1.215-.987 2.2-2.205 2.2a2.203 2.203 0 0 1-2.206-2.2c0-1.215.988-2.2 2.206-2.2Zm16.172 0c1.218 0 2.206.985 2.206 2.2 0 1.215-.988 2.2-2.206 2.2a2.203 2.203 0 0 1-2.205-2.2c0-1.215.987-2.2 2.205-2.2Zm16.173 0c1.218 0 2.205.985 2.205 2.2 0 1.215-.987 2.2-2.205 2.2a2.203 2.203 0 0 1-2.206-2.2c0-1.215.988-2.2 2.206-2.2Zm16.172 0c1.218 0 2.206.985 2.206 2.2 0 1.215-.988 2.2-2.206 2.2a2.203 2.203 0 0 1-2.205-2.2c0-1.215.987-2.2 2.205-2.2Zm16.173 0c1.218 0 2.205.985 2.205 2.2 0 1.215-.987 2.2-2.205 2.2a2.203 2.203 0 0 1-2.205-2.2c0-1.215.987-2.2 2.205-2.2Zm16.173 0c1.218 0 2.205.985 2.205 2.2 0 1.215-.987 2.2-2.205 2.2a2.203 2.203 0 0 1-2.206-2.2c0-1.215.988-2.2 2.206-2.2Zm16.172 0c1.218 0 2.206.985 2.206 2.2 0 1.215-.988 2.2-2.206 2.2a2.203 2.203 0 0 1-2.205-2.2c0-1.215.987-2.2 2.205-2.2ZM78.842 2.2c0 1.215-.987 2.2-2.205 2.2a2.203 2.203 0 0 1-2.205-2.2c0-1.215.987-2.2 2.205-2.2s2.205.985 2.205 2.2Zm0 16.133c0 1.215-.987 2.2-2.205 2.2a2.203 2.203 0 0 1-2.205-2.2c0-1.215.987-2.2 2.205-2.2s2.205.985 2.205 2.2Zm0 16.134c0 1.215-.987 2.2-2.205 2.2a2.203 2.203 0 0 1-2.205-2.2c0-1.215.987-2.2 2.205-2.2s2.205.985 2.205 2.2Zm0 16.133c0 1.215-.987 2.2-2.205 2.2a2.203 2.203 0 0 1-2.205-2.2c0-1.215.987-2.2 2.205-2.2s2.205.985 2.205 2.2Zm0 16.133c0 1.215-.987 2.2-2.205 2.2a2.203 2.203 0 0 1-2.205-2.2c0-1.215.987-2.2 2.205-2.2s2.205.985 2.205 2.2Zm0 16.134c0 1.215-.987 2.2-2.205 2.2a2.203 2.203 0 0 1-2.205-2.2c0-1.215.987-2.2 2.205-2.2s2.205.985 2.205 2.2Zm0 16.133c0 1.215-.987 2.2-2.205 2.2a2.203 2.203 0 0 1-2.205-2.2c0-1.215.987-2.2 2.205-2.2s2.205.985 2.205 2.2Zm0 16.133c0 1.215-.987 2.2-2.205 2.2a2.203 2.203 0 0 1-2.205-2.2c0-1.215.987-2.2 2.205-2.2s2.205.985 2.205 2.2Zm0 16.134c0 1.215-.987 2.2-2.205 2.2a2.203 2.203 0 0 1-2.205-2.2c0-1.215.987-2.2 2.205-2.2s2.205.985 2.205 2.2Zm0 16.133c0 1.215-.987 2.2-2.205 2.2a2.203 2.203 0 0 1-2.205-2.2c0-1.215.987-2.2 2.205-2.2s2.205.985 2.205 2.2Zm0 16.133c0 1.215-.987 2.2-2.205 2.2a2.203 2.203 0 0 1-2.205-2.2c0-1.215.987-2.2 2.205-2.2s2.205.985 2.205 2.2Zm0 16.134c0 1.215-.987 2.2-2.205 2.2a2.203 2.203 0 0 1-2.205-2.2c0-1.215.987-2.2 2.205-2.2s2.205.985 2.205 2.2Zm0 16.133c0 1.215-.987 2.2-2.205 2.2a2.203 2.203 0 0 1-2.205-2.2c0-1.215.987-2.2 2.205-2.2s2.205.985 2.205 2.2Zm0 16.133c0 1.215-.987 2.2-2.205 2.2a2.203 2.203 0 0 1-2.205-2.2c0-1.215.987-2.2 2.205-2.2s2.205.985 2.205 2.2ZM95.015 99c0 1.215-.987 2.2-2.205 2.2a2.203 2.203 0 0 1-2.206-2.2c0-1.215.988-2.2 2.206-2.2s2.205.985 2.205 2.2Zm0 16.133c0 1.215-.987 2.2-2.205 2.2a2.203 2.203 0 0 1-2.206-2.2c0-1.215.988-2.2 2.206-2.2s2.205.985 2.205 2.2Zm0 16.134c0 1.215-.987 2.2-2.205 2.2a2.203 2.203 0 0 1-2.206-2.2c0-1.215.988-2.2 2.206-2.2s2.205.985 2.205 2.2Zm0 16.133c0 1.215-.987 2.2-2.205 2.2a2.203 2.203 0 0 1-2.206-2.2c0-1.215.988-2.2 2.206-2.2s2.205.985 2.205 2.2Zm0-145.2c0 1.215-.987 2.2-2.205 2.2a2.203 2.203 0 0 1-2.206-2.2c0-1.215.988-2.2 2.206-2.2s2.205.985 2.205 2.2Zm0 32.267c0 1.215-.987 2.2-2.205 2.2a2.203 2.203 0 0 1-2.206-2.2c0-1.215.988-2.2 2.206-2.2s2.205.985 2.205 2.2Zm0 32.266c0 1.215-.987 2.2-2.205 2.2a2.203 2.203 0 0 1-2.206-2.2c0-1.215.988-2.2 2.206-2.2s2.205.985 2.205 2.2Zm0 16.134c0 1.215-.987 2.2-2.205 2.2a2.203 2.203 0 0 1-2.206-2.2c0-1.215.988-2.2 2.206-2.2s2.205.985 2.205 2.2Zm0 96.8c0 1.215-.987 2.2-2.205 2.2a2.203 2.203 0 0 1-2.206-2.2c0-1.215.988-2.2 2.206-2.2s2.205.985 2.205 2.2Zm0 16.133c0 1.215-.987 2.2-2.205 2.2a2.203 2.203 0 0 1-2.206-2.2c0-1.215.988-2.2 2.206-2.2s2.205.985 2.205 2.2Zm0-177.467c0 1.215-.987 2.2-2.205 2.2a2.203 2.203 0 0 1-2.206-2.2c0-1.215.988-2.2 2.206-2.2s2.205.985 2.205 2.2Zm0 193.6c0 1.215-.987 2.2-2.205 2.2a2.203 2.203 0 0 1-2.206-2.2c0-1.215.988-2.2 2.206-2.2s2.205.985 2.205 2.2Zm0-161.333c0 1.215-.987 2.2-2.205 2.2a2.203 2.203 0 0 1-2.206-2.2c0-1.215.988-2.2 2.206-2.2s2.205.985 2.205 2.2Zm0 112.933c0 1.215-.987 2.2-2.205 2.2a2.203 2.203 0 0 1-2.206-2.2c0-1.215.988-2.2 2.206-2.2s2.205.985 2.205 2.2ZM111.187 2.2c0 1.215-.987 2.2-2.205 2.2a2.203 2.203 0 0 1-2.205-2.2c0-1.215.987-2.2 2.205-2.2s2.206.985 2.206 2.2Zm0 32.267c0 1.215-.987 2.2-2.205 2.2a2.203 2.203 0 0 1-2.205-2.2c0-1.215.987-2.2 2.205-2.2s2.206.985 2.206 2.2Zm0 16.133c0 1.215-.987 2.2-2.205 2.2a2.203 2.203 0 0 1-2.205-2.2c0-1.215.987-2.2 2.205-2.2s2.206.985 2.206 2.2Zm0 16.133c0 1.215-.987 2.2-2.205 2.2a2.203 2.203 0 0 1-2.205-2.2c0-1.215.987-2.2 2.205-2.2s2.206.985 2.206 2.2Zm0 16.134c0 1.215-.987 2.2-2.205 2.2a2.203 2.203 0 0 1-2.205-2.2c0-1.215.987-2.2 2.205-2.2s2.206.985 2.206 2.2Zm0-64.534c0 1.215-.987 2.2-2.205 2.2a2.203 2.203 0 0 1-2.205-2.2c0-1.215.987-2.2 2.205-2.2s2.206.985 2.206 2.2Zm0 80.667c0 1.215-.987 2.2-2.205 2.2a2.203 2.203 0 0 1-2.205-2.2c0-1.215.987-2.2 2.205-2.2s2.206.985 2.206 2.2Zm0 16.133c0 1.215-.987 2.2-2.205 2.2a2.203 2.203 0 0 1-2.205-2.2c0-1.215.987-2.2 2.205-2.2s2.206.985 2.206 2.2Zm0 16.134c0 1.215-.987 2.2-2.205 2.2a2.203 2.203 0 0 1-2.205-2.2c0-1.215.987-2.2 2.205-2.2s2.206.985 2.206 2.2Zm0 16.133c0 1.215-.987 2.2-2.205 2.2a2.203 2.203 0 0 1-2.205-2.2c0-1.215.987-2.2 2.205-2.2s2.206.985 2.206 2.2Zm0 16.133c0 1.215-.987 2.2-2.205 2.2a2.203 2.203 0 0 1-2.205-2.2c0-1.215.987-2.2 2.205-2.2s2.206.985 2.206 2.2Zm0 16.134c0 1.215-.987 2.2-2.205 2.2a2.203 2.203 0 0 1-2.205-2.2c0-1.215.987-2.2 2.205-2.2s2.206.985 2.206 2.2Zm0 16.133c0 1.215-.987 2.2-2.205 2.2a2.203 2.203 0 0 1-2.205-2.2c0-1.215.987-2.2 2.205-2.2s2.206.985 2.206 2.2Zm0 16.133c0 1.215-.987 2.2-2.205 2.2a2.203 2.203 0 0 1-2.205-2.2c0-1.215.987-2.2 2.205-2.2s2.206.985 2.206 2.2ZM127.36 2.2c0 1.215-.987 2.2-2.205 2.2a2.203 2.203 0 0 1-2.206-2.2c0-1.215.988-2.2 2.206-2.2s2.205.985 2.205 2.2Zm0 16.133c0 1.215-.987 2.2-2.205 2.2a2.203 2.203 0 0 1-2.206-2.2c0-1.215.988-2.2 2.206-2.2s2.205.985 2.205 2.2Zm0 16.134c0 1.215-.987 2.2-2.205 2.2a2.203 2.203 0 0 1-2.206-2.2c0-1.215.988-2.2 2.206-2.2s2.205.985 2.205 2.2Zm0 16.133c0 1.215-.987 2.2-2.205 2.2a2.203 2.203 0 0 1-2.206-2.2c0-1.215.988-2.2 2.206-2.2s2.205.985 2.205 2.2Zm0 16.133c0 1.215-.987 2.2-2.205 2.2a2.203 2.203 0 0 1-2.206-2.2c0-1.215.988-2.2 2.206-2.2s2.205.985 2.205 2.2Zm0 16.134c0 1.215-.987 2.2-2.205 2.2a2.203 2.203 0 0 1-2.206-2.2c0-1.215.988-2.2 2.206-2.2s2.205.985 2.205 2.2Zm0 16.133c0 1.215-.987 2.2-2.205 2.2a2.203 2.203 0 0 1-2.206-2.2c0-1.215.988-2.2 2.206-2.2s2.205.985 2.205 2.2Zm0 16.133c0 1.215-.987 2.2-2.205 2.2a2.203 2.203 0 0 1-2.206-2.2c0-1.215.988-2.2 2.206-2.2s2.205.985 2.205 2.2Zm0 16.134c0 1.215-.987 2.2-2.205 2.2a2.203 2.203 0 0 1-2.206-2.2c0-1.215.988-2.2 2.206-2.2s2.205.985 2.205 2.2Zm0 16.133c0 1.215-.987 2.2-2.205 2.2a2.203 2.203 0 0 1-2.206-2.2c0-1.215.988-2.2 2.206-2.2s2.205.985 2.205 2.2Zm0 16.133c0 1.215-.987 2.2-2.205 2.2a2.203 2.203 0 0 1-2.206-2.2c0-1.215.988-2.2 2.206-2.2s2.205.985 2.205 2.2Zm0 16.134c0 1.215-.987 2.2-2.205 2.2a2.203 2.203 0 0 1-2.206-2.2c0-1.215.988-2.2 2.206-2.2s2.205.985 2.205 2.2Zm0 16.133c0 1.215-.987 2.2-2.205 2.2a2.203 2.203 0 0 1-2.206-2.2c0-1.215.988-2.2 2.206-2.2s2.205.985 2.205 2.2Zm0 16.133c0 1.215-.987 2.2-2.205 2.2a2.203 2.203 0 0 1-2.206-2.2c0-1.215.988-2.2 2.206-2.2s2.205.985 2.205 2.2ZM143.533 2.2c0 1.215-.988 2.2-2.206 2.2a2.203 2.203 0 0 1-2.205-2.2c0-1.215.987-2.2 2.205-2.2s2.206.985 2.206 2.2Zm0 16.133c0 1.215-.988 2.2-2.206 2.2a2.203 2.203 0 0 1-2.205-2.2c0-1.215.987-2.2 2.205-2.2s2.206.985 2.206 2.2Zm0 16.134c0 1.215-.988 2.2-2.206 2.2a2.203 2.203 0 0 1-2.205-2.2c0-1.215.987-2.2 2.205-2.2s2.206.985 2.206 2.2Zm0 16.133c0 1.215-.988 2.2-2.206 2.2a2.203 2.203 0 0 1-2.205-2.2c0-1.215.987-2.2 2.205-2.2s2.206.985 2.206 2.2Zm0 16.133c0 1.215-.988 2.2-2.206 2.2a2.203 2.203 0 0 1-2.205-2.2c0-1.215.987-2.2 2.205-2.2s2.206.985 2.206 2.2Zm0 16.134c0 1.215-.988 2.2-2.206 2.2a2.203 2.203 0 0 1-2.205-2.2c0-1.215.987-2.2 2.205-2.2s2.206.985 2.206 2.2Zm0 16.133c0 1.215-.988 2.2-2.206 2.2a2.203 2.203 0 0 1-2.205-2.2c0-1.215.987-2.2 2.205-2.2s2.206.985 2.206 2.2Zm0 16.133c0 1.215-.988 2.2-2.206 2.2a2.203 2.203 0 0 1-2.205-2.2c0-1.215.987-2.2 2.205-2.2s2.206.985 2.206 2.2Zm0 16.134c0 1.215-.988 2.2-2.206 2.2a2.203 2.203 0 0 1-2.205-2.2c0-1.215.987-2.2 2.205-2.2s2.206.985 2.206 2.2Zm0 16.133c0 1.215-.988 2.2-2.206 2.2a2.203 2.203 0 0 1-2.205-2.2c0-1.215.987-2.2 2.205-2.2s2.206.985 2.206 2.2Zm0 16.133c0 1.215-.988 2.2-2.206 2.2a2.203 2.203 0 0 1-2.205-2.2c0-1.215.987-2.2 2.205-2.2s2.206.985 2.206 2.2Zm0 16.134c0 1.215-.988 2.2-2.206 2.2a2.203 2.203 0 0 1-2.205-2.2c0-1.215.987-2.2 2.205-2.2s2.206.985 2.206 2.2Zm0 16.133c0 1.215-.988 2.2-2.206 2.2a2.203 2.203 0 0 1-2.205-2.2c0-1.215.987-2.2 2.205-2.2s2.206.985 2.206 2.2Zm0 16.133c0 1.215-.988 2.2-2.206 2.2a2.203 2.203 0 0 1-2.205-2.2c0-1.215.987-2.2 2.205-2.2s2.206.985 2.206 2.2ZM159.705 2.2c0 1.215-.987 2.2-2.205 2.2a2.203 2.203 0 0 1-2.205-2.2c0-1.215.987-2.2 2.205-2.2s2.205.985 2.205 2.2Zm0 16.133c0 1.215-.987 2.2-2.205 2.2a2.203 2.203 0 0 1-2.205-2.2c0-1.215.987-2.2 2.205-2.2s2.205.985 2.205 2.2Zm0 16.134c0 1.215-.987 2.2-2.205 2.2a2.203 2.203 0 0 1-2.205-2.2c0-1.215.987-2.2 2.205-2.2s2.205.985 2.205 2.2Zm0 16.133c0 1.215-.987 2.2-2.205 2.2a2.203 2.203 0 0 1-2.205-2.2c0-1.215.987-2.2 2.205-2.2s2.205.985 2.205 2.2Zm0 16.133c0 1.215-.987 2.2-2.205 2.2a2.203 2.203 0 0 1-2.205-2.2c0-1.215.987-2.2 2.205-2.2s2.205.985 2.205 2.2Zm0 16.134c0 1.215-.987 2.2-2.205 2.2a2.203 2.203 0 0 1-2.205-2.2c0-1.215.987-2.2 2.205-2.2s2.205.985 2.205 2.2Zm0 16.133c0 1.215-.987 2.2-2.205 2.2a2.203 2.203 0 0 1-2.205-2.2c0-1.215.987-2.2 2.205-2.2s2.205.985 2.205 2.2Zm0 16.133c0 1.215-.987 2.2-2.205 2.2a2.203 2.203 0 0 1-2.205-2.2c0-1.215.987-2.2 2.205-2.2s2.205.985 2.205 2.2Zm0 16.134c0 1.215-.987 2.2-2.205 2.2a2.203 2.203 0 0 1-2.205-2.2c0-1.215.987-2.2 2.205-2.2s2.205.985 2.205 2.2Zm0 16.133c0 1.215-.987 2.2-2.205 2.2a2.203 2.203 0 0 1-2.205-2.2c0-1.215.987-2.2 2.205-2.2s2.205.985 2.205 2.2Zm0 16.133c0 1.215-.987 2.2-2.205 2.2a2.203 2.203 0 0 1-2.205-2.2c0-1.215.987-2.2 2.205-2.2s2.205.985 2.205 2.2Zm0 16.134c0 1.215-.987 2.2-2.205 2.2a2.203 2.203 0 0 1-2.205-2.2c0-1.215.987-2.2 2.205-2.2s2.205.985 2.205 2.2Zm0 16.133c0 1.215-.987 2.2-2.205 2.2a2.203 2.203 0 0 1-2.205-2.2c0-1.215.987-2.2 2.205-2.2s2.205.985 2.205 2.2Zm0 16.133c0 1.215-.987 2.2-2.205 2.2a2.203 2.203 0 0 1-2.205-2.2c0-1.215.987-2.2 2.205-2.2s2.205.985 2.205 2.2ZM175.878 2.2c0 1.215-.987 2.2-2.205 2.2a2.203 2.203 0 0 1-2.206-2.2c0-1.215.988-2.2 2.206-2.2s2.205.985 2.205 2.2Zm0 16.133c0 1.215-.987 2.2-2.205 2.2a2.203 2.203 0 0 1-2.206-2.2c0-1.215.988-2.2 2.206-2.2s2.205.985 2.205 2.2Zm0 16.134c0 1.215-.987 2.2-2.205 2.2a2.203 2.203 0 0 1-2.206-2.2c0-1.215.988-2.2 2.206-2.2s2.205.985 2.205 2.2Zm0 16.133c0 1.215-.987 2.2-2.205 2.2a2.203 2.203 0 0 1-2.206-2.2c0-1.215.988-2.2 2.206-2.2s2.205.985 2.205 2.2Zm0 16.133c0 1.215-.987 2.2-2.205 2.2a2.203 2.203 0 0 1-2.206-2.2c0-1.215.988-2.2 2.206-2.2s2.205.985 2.205 2.2Zm0 16.134c0 1.215-.987 2.2-2.205 2.2a2.203 2.203 0 0 1-2.206-2.2c0-1.215.988-2.2 2.206-2.2s2.205.985 2.205 2.2Zm0 16.133c0 1.215-.987 2.2-2.205 2.2a2.203 2.203 0 0 1-2.206-2.2c0-1.215.988-2.2 2.206-2.2s2.205.985 2.205 2.2Zm0 16.133c0 1.215-.987 2.2-2.205 2.2a2.203 2.203 0 0 1-2.206-2.2c0-1.215.988-2.2 2.206-2.2s2.205.985 2.205 2.2Zm0 16.134c0 1.215-.987 2.2-2.205 2.2a2.203 2.203 0 0 1-2.206-2.2c0-1.215.988-2.2 2.206-2.2s2.205.985 2.205 2.2Zm0 16.133c0 1.215-.987 2.2-2.205 2.2a2.203 2.203 0 0 1-2.206-2.2c0-1.215.988-2.2 2.206-2.2s2.205.985 2.205 2.2Zm0 16.133c0 1.215-.987 2.2-2.205 2.2a2.203 2.203 0 0 1-2.206-2.2c0-1.215.988-2.2 2.206-2.2s2.205.985 2.205 2.2Zm0 16.134c0 1.215-.987 2.2-2.205 2.2a2.203 2.203 0 0 1-2.206-2.2c0-1.215.988-2.2 2.206-2.2s2.205.985 2.205 2.2Zm0 16.133c0 1.215-.987 2.2-2.205 2.2a2.203 2.203 0 0 1-2.206-2.2c0-1.215.988-2.2 2.206-2.2s2.205.985 2.205 2.2Zm0 16.133c0 1.215-.987 2.2-2.205 2.2a2.203 2.203 0 0 1-2.206-2.2c0-1.215.988-2.2 2.206-2.2s2.205.985 2.205 2.2ZM192.051 2.2c0 1.215-.988 2.2-2.206 2.2a2.203 2.203 0 0 1-2.205-2.2c0-1.215.987-2.2 2.205-2.2s2.206.985 2.206 2.2Zm0 16.133c0 1.215-.988 2.2-2.206 2.2a2.203 2.203 0 0 1-2.205-2.2c0-1.215.987-2.2 2.205-2.2s2.206.985 2.206 2.2Zm0 16.134c0 1.215-.988 2.2-2.206 2.2a2.203 2.203 0 0 1-2.205-2.2c0-1.215.987-2.2 2.205-2.2s2.206.985 2.206 2.2Zm0 16.133c0 1.215-.988 2.2-2.206 2.2a2.203 2.203 0 0 1-2.205-2.2c0-1.215.987-2.2 2.205-2.2s2.206.985 2.206 2.2Zm0 16.133c0 1.215-.988 2.2-2.206 2.2a2.203 2.203 0 0 1-2.205-2.2c0-1.215.987-2.2 2.205-2.2s2.206.985 2.206 2.2Zm0 16.134c0 1.215-.988 2.2-2.206 2.2a2.203 2.203 0 0 1-2.205-2.2c0-1.215.987-2.2 2.205-2.2s2.206.985 2.206 2.2Zm0 16.133c0 1.215-.988 2.2-2.206 2.2a2.203 2.203 0 0 1-2.205-2.2c0-1.215.987-2.2 2.205-2.2s2.206.985 2.206 2.2Zm0 16.133c0 1.215-.988 2.2-2.206 2.2a2.203 2.203 0 0 1-2.205-2.2c0-1.215.987-2.2 2.205-2.2s2.206.985 2.206 2.2Zm0 16.134c0 1.215-.988 2.2-2.206 2.2a2.203 2.203 0 0 1-2.205-2.2c0-1.215.987-2.2 2.205-2.2s2.206.985 2.206 2.2Zm0 16.133c0 1.215-.988 2.2-2.206 2.2a2.203 2.203 0 0 1-2.205-2.2c0-1.215.987-2.2 2.205-2.2s2.206.985 2.206 2.2Zm0 16.133c0 1.215-.988 2.2-2.206 2.2a2.203 2.203 0 0 1-2.205-2.2c0-1.215.987-2.2 2.205-2.2s2.206.985 2.206 2.2Zm0 16.134c0 1.215-.988 2.2-2.206 2.2a2.203 2.203 0 0 1-2.205-2.2c0-1.215.987-2.2 2.205-2.2s2.206.985 2.206 2.2Zm0 16.133c0 1.215-.988 2.2-2.206 2.2a2.203 2.203 0 0 1-2.205-2.2c0-1.215.987-2.2 2.205-2.2s2.206.985 2.206 2.2Zm0 16.133c0 1.215-.988 2.2-2.206 2.2a2.203 2.203 0 0 1-2.205-2.2c0-1.215.987-2.2 2.205-2.2s2.206.985 2.206 2.2Z" fill="#F6F6F6"/><path d="M227.941 59.15c28.228 11.884 48.093 40.196 52.902 69.73 4.81 29.535-5.646 60.293-26.346 82.138-20.701 21.845-51.648 34.952-83.43 43.69-31.993 8.913-64.822 13.457-89.914 4.195-25.091-9.263-42.447-32.506-57.502-56.099-15.055-23.418-27.81-47.185-22.373-67.458 5.645-20.272 29.273-36.874 53.11-49.282 23.838-12.408 47.466-20.797 77.786-27.263 30.319-6.64 67.33-11.36 95.767.35Z" fill="#F6F6F6"/><path d="M4.406 249.671a3.89 3.89 0 0 1 2.76 1.148 3.906 3.906 0 0 1 1.146 2.767c0 1.079-.438 2.057-1.146 2.766a3.89 3.89 0 0 1-5.52 0A3.906 3.906 0 0 1 .5 253.586c0-1.08.438-2.058 1.146-2.767a3.89 3.89 0 0 1 2.76-1.148Zm0 .327c-.987 0-1.883.403-2.532 1.053a3.579 3.579 0 0 0-1.05 2.535c0 .989.402 1.885 1.05 2.535a3.568 3.568 0 0 0 2.532 1.052c.988 0 1.884-.402 2.532-1.052a3.58 3.58 0 0 0 1.05-2.535 3.58 3.58 0 0 0-1.05-2.536 3.568 3.568 0 0 0-2.532-1.052Zm228.324-51.827c.077 0 .153.03.213.09a.301.301 0 0 1 0 .428l-3.392 3.396 3.391 3.398a.303.303 0 0 1-.425.429l-3.392-3.4-3.392 3.4a.3.3 0 0 1-.425 0 .303.303 0 0 1 0-.43l3.39-3.397-3.39-3.396a.303.303 0 0 1 .212-.518l3.605 3.486 3.392-3.397a.3.3 0 0 1 .213-.089Zm-176.25-8.828a.3.3 0 0 1 .301.303c0 .078-.03.155-.088.214l-3.392 3.397 3.391 3.397a.303.303 0 0 1-.425.429l-3.392-3.399-3.392 3.399a.3.3 0 0 1-.425 0 .303.303 0 0 1 0-.429l3.39-3.397-3.39-3.396a.304.304 0 0 1 .212-.518l3.605 3.487 3.393-3.399a.298.298 0 0 1 .212-.088ZM229.125 114.3a3.89 3.89 0 0 1 2.76 1.147 3.905 3.905 0 0 1 1.146 2.767c0 1.08-.438 2.058-1.146 2.767a3.89 3.89 0 0 1-5.52 0 3.907 3.907 0 0 1-1.146-2.767c0-1.08.438-2.058 1.146-2.766a3.89 3.89 0 0 1 2.76-1.148Zm0 .327c-.988 0-1.883.402-2.532 1.052a3.579 3.579 0 0 0-1.05 2.535 3.58 3.58 0 0 0 1.05 2.535 3.568 3.568 0 0 0 5.064 0 3.58 3.58 0 0 0 1.05-2.535c0-.989-.402-1.886-1.05-2.535a3.568 3.568 0 0 0-2.532-1.052ZM281.199 52.5a.303.303 0 0 1 .212.517l-3.391 3.397 3.391 3.397a.303.303 0 0 1-.425.43l-3.393-3.4-3.391 3.4a.3.3 0 0 1-.426 0 .303.303 0 0 1 0-.43l3.39-3.397-3.39-3.397a.301.301 0 0 1 0-.429.3.3 0 0 1 .213-.088l3.604 3.486 3.392-3.397a.301.301 0 0 1 .214-.089Zm-225.744.972a3.906 3.906 0 0 1 1.318 2.69c.065 1-.25 2.025-.962 2.836a3.877 3.877 0 0 1-2.67 1.321c-1.207.006-2.12-.327-2.844-.965a3.89 3.89 0 0 1-1.32-2.689 3.894 3.894 0 0 1 .965-2.837 3.89 3.89 0 0 1 2.683-1.32 3.89 3.89 0 0 1 2.83.964Zm-2.577-.645c-.995 0-1.986.412-2.693 1.218a3.567 3.567 0 0 0-.883 2.6c.061.955.49 1.83 1.209 2.463.72.633 1.643.95 2.597.886a3.556 3.556 0 0 0 2.459-1.213 3.58 3.58 0 0 0 .882-2.598 3.581 3.581 0 0 0-3.57-3.356Z" stroke="#E5E5E5"/><path d="M187.8 105.8c-.993 0-1.8-.807-1.8-1.8s.807-1.8 1.8-1.8 1.8.807 1.8 1.8-.807 1.8-1.8 1.8Zm-48.6 113.4c-.993 0-1.8-.807-1.8-1.8s.807-1.8 1.8-1.8 1.8.807 1.8 1.8-.807 1.8-1.8 1.8ZM92.4 100.4c-.993 0-1.8-.807-1.8-1.8s.807-1.8 1.8-1.8 1.8.807 1.8 1.8-.807 1.8-1.8 1.8Z" fill="#ECECFE"/><path d="M99.6 125.6c-.993 0-1.8-.807-1.8-1.8s.807-1.8 1.8-1.8 1.8.807 1.8 1.8-.807 1.8-1.8 1.8Zm7.2 0c-.993 0-1.8-.807-1.8-1.8s.807-1.8 1.8-1.8 1.8.807 1.8 1.8-.807 1.8-1.8 1.8Zm7.2 0c-.993 0-1.8-.807-1.8-1.8s.807-1.8 1.8-1.8 1.8.807 1.8 1.8-.807 1.8-1.8 1.8Zm65.88 36.36a1.8 1.8 0 0 1 .484 2.331l-.124.189-7.745 10.327a5.4 5.4 0 1 1-9.409.75l.041-.084-3.6-3.6a1.8 1.8 0 0 1 2.376-2.696l.17.15 3.6 3.6.084-.04A5.38 5.38 0 0 1 168 172.4c.563 0 1.106.086 1.616.246l7.744-10.326a1.8 1.8 0 0 1 2.52-.36ZM168 176a1.8 1.8 0 1 0 0 3.6 1.8 1.8 0 0 0 0-3.6Zm14.4-54a1.8 1.8 0 0 1 .21 3.588l-.21.012h-54a1.8 1.8 0 0 1-.21-3.588l.21-.012h54Z" fill="#E1000F"/><path d="M168 147.2c16.9 0 30.6 13.7 30.6 30.6a30.476 30.476 0 0 1-6.865 19.315 1.8 1.8 0 0 1-2.791-2.274A26.876 26.876 0 0 0 195 177.8c0-14.912-12.088-27-27-27s-27 12.088-27 27c0 13.286 9.596 24.33 22.236 26.581l-.109-.108a1.8 1.8 0 0 1-.15-2.376l.15-.17a1.8 1.8 0 0 1 2.376-.15l.17.15 3.6 3.6c.037.038.073.077.107.117l-.107-.117a1.82 1.82 0 0 1 .471.826 2.028 2.028 0 0 1 .035.172l.004.028c.011.08.017.163.017.247v.033l-.002.051.002-.084a1.82 1.82 0 0 1-.138.694 1.796 1.796 0 0 1-.24.41l-.016.02a1.81 1.81 0 0 1-.04.047l-.093.102-3.6 3.6a1.8 1.8 0 0 1-2.696-2.376l.15-.17.798-.796C148.95 206.138 137.4 193.318 137.4 177.8c0-16.9 13.7-30.6 30.6-30.6Zm19.406 51.956a1.8 1.8 0 0 1-.279 2.53 30.663 30.663 0 0 1-3.81 2.61 1.8 1.8 0 1 1-1.805-3.115 27.063 27.063 0 0 0 3.363-2.303 1.8 1.8 0 0 1 2.53.278ZM189.6 114.8a1.8 1.8 0 0 1 1.788 1.59l.012.21v28.8a1.8 1.8 0 0 1-3.588.21l-.012-.21v-27H94.2l-.001 10.799 66.601.001a1.8 1.8 0 0 1 .21 3.588l-.21.012H94.199l.001 64.8h41.4a1.8 1.8 0 0 1 1.788 1.59l.012.21a1.8 1.8 0 0 1-1.59 1.788l-.21.012H92.4a1.8 1.8 0 0 1-1.788-1.59l-.012-.21v-82.8a1.8 1.8 0 0 1 1.59-1.788l.21-.012h97.2ZM168 158c1.355 0 2.693.136 4 .405a1.8 1.8 0 1 1-.723 3.526A16.28 16.28 0 0 0 168 161.6c-8.947 0-16.2 7.253-16.2 16.2S159.053 194 168 194s16.2-7.253 16.2-16.2a16.14 16.14 0 0 0-1.318-6.411 1.8 1.8 0 0 1 3.306-1.426 19.74 19.74 0 0 1 1.612 7.837c0 10.935-8.865 19.8-19.8 19.8s-19.8-8.865-19.8-19.8S157.065 158 168 158Zm-39.6 7.2a1.8 1.8 0 0 1 .21 3.588l-.21.012h-21.6a1.8 1.8 0 0 1-.21-3.588l.21-.012h21.6Zm3.6-10.8a1.8 1.8 0 0 1 .21 3.588L132 158h-25.2a1.8 1.8 0 0 1-.21-3.588l.21-.012H132Zm7.2-10.8a1.8 1.8 0 0 1 .21 3.588l-.21.012h-32.4a1.8 1.8 0 0 1-.21-3.588l.21-.012h32.4Z" fill="#000091"/></g></svg>