<?xml version="1.0" encoding="UTF-8"?>
<svg aria-hidden="true" focusable="false" width="80px" height="80px" viewBox="0 0 80 80" version="1.1" xmlns="http://www.w3.org/2000/svg" xmlns:xlink="http://www.w3.org/1999/xlink">
    <g id="france-localisation" stroke="none" stroke-width="1" fill="none" fill-rule="evenodd">
        <path d="M70,69 C69.4485999,69 69,68.5514001 69,68 C69,67.4485529 69.4485999,67 70,67 C70.5514001,67 71,67.4485529 71,68 C71,68.5514001 70.5514001,69 70,69 Z M68,13 C67.4485999,13 67,12.5514001 67,12 C67,11.4485529 67.4485999,11 68,11 C68.5514001,11 69,11.4485529 69,12 C69,12.5514001 68.5514001,13 68,13 Z M14,69 C13.4485999,69 13,68.5514001 13,68 C13,67.4485529 13.4485999,67 14,67 C14.5514001,67 15,67.4485529 15,68 C15,68.5514001 14.5514001,69 14,69 Z M10,17 C9.44859989,17 9,16.5514001 9,16 C9,15.4485529 9.44859989,15 10,15 C10.5514001,15 11,15.4485529 11,16 C11,16.5514001 10.5514001,17 10,17 Z" id="Couleur-décorative" fill="#ECECFE"></path>
        <path d="M19,30 C20.6568542,30 22,31.3431458 22,33 C22,34.3058822 21.1656226,35.4168852 20.0009007,35.8289758 L20,39 C20,39.5522847 19.5522847,40 19,40 C18.4871642,40 18.0644928,39.6139598 18.0067277,39.1166211 L18,39 L18.0000889,35.8293257 C16.8348501,35.4175144 16,34.3062521 16,33 C16,31.3431458 17.3431458,30 19,30 Z M19,32 C18.4477153,32 18,32.4477153 18,33 C18,33.5522847 18.4477153,34 19,34 C19.5522847,34 20,33.5522847 20,33 C20,32.4477153 19.5522847,32 19,32 Z M41,26 C42.6568542,26 44,27.3431458 44,29 C44,30.3058822 43.1656226,31.4168852 42.0009007,31.8289758 L42,35 C42,35.5522847 41.5522847,36 41,36 C40.4871642,36 40.0644928,35.6139598 40.0067277,35.1166211 L40,35 L40.0000889,31.8293257 C38.8348501,31.4175144 38,30.3062521 38,29 C38,27.3431458 39.3431458,26 41,26 Z M41,28 C40.4477153,28 40,28.4477153 40,29 C40,29.5522847 40.4477153,30 41,30 C41.5522847,30 42,29.5522847 42,29 C42,28.4477153 41.5522847,28 41,28 Z M59,14 C60.6568542,14 62,15.3431458 62,17 C62,18.3058822 61.1656226,19.4168852 60.0009007,19.8289758 L60,23 C60,23.5522847 59.5522847,24 59,24 C58.4871642,24 58.0644928,23.6139598 58.0067277,23.1166211 L58,23 L58.0000889,19.8293257 C56.8348501,19.4175144 56,18.3062521 56,17 C56,15.3431458 57.3431458,14 59,14 Z M59,16 C58.4477153,16 58,16.4477153 58,17 C58,17.5522847 58.4477153,18 59,18 C59.5522847,18 60,17.5522847 60,17 C60,16.4477153 59.5522847,16 59,16 Z M51,36 C52.6568542,36 54,37.3431458 54,39 C54,40.3058822 53.1656226,41.4168852 52.0009007,41.8289758 L52,45 C52,45.5522847 51.5522847,46 51,46 C50.4871642,46 50.0644928,45.6139598 50.0067277,45.1166211 L50,45 L50.0000889,41.8293257 C48.8348501,41.4175144 48,40.3062521 48,39 C48,37.3431458 49.3431458,36 51,36 Z M51,38 C50.4477153,38 50,38.4477153 50,39 C50,39.5522847 50.4477153,40 51,40 C51.5522847,40 52,39.5522847 52,39 C52,38.4477153 51.5522847,38 51,38 Z M37,46 C38.6568542,46 40,47.3431458 40,49 C40,50.3058822 39.1656226,51.4168852 38.0009007,51.8289758 L38,55 C38,55.5522847 37.5522847,56 37,56 C36.4871642,56 36.0644928,55.6139598 36.0067277,55.1166211 L36,55 L36.0000889,51.8293257 C34.8348501,51.4175144 34,50.3062521 34,49 C34,47.3431458 35.3431458,46 37,46 Z M37,48 C36.4477153,48 36,48.4477153 36,49 C36,49.5522847 36.4477153,50 37,50 C37.5522847,50 38,49.5522847 38,49 C38,48.4477153 37.5522847,48 37,48 Z M53,56 C54.6568542,56 56,57.3431458 56,59 C56,60.3058822 55.1656226,61.4168852 54.0009007,61.8289758 L54,65 C54,65.5522847 53.5522847,66 53,66 C52.4871642,66 52.0644928,65.6139598 52.0067277,65.1166211 L52,65 L52.0000889,61.8293257 C50.8348501,61.4175144 50,60.3062521 50,59 C50,57.3431458 51.3431458,56 53,56 Z M53,58 C52.4477153,58 52,58.4477153 52,59 C52,59.5522847 52.4477153,60 53,60 C53.5522847,60 54,59.5522847 54,59 C54,58.4477153 53.5522847,58 53,58 Z" id="🎨Couleur-mineure-(Indice--main)" fill="#E1000F"></path>
        <path d="M63.040838,24.0008342 L65.7082912,24.1098585 C65.8792741,24.1168469 66.0456029,24.1675962 66.1913632,24.2572506 C67.4784614,25.0489203 67.9661837,26.6610635 67.3399123,27.9984425 L67.2558035,28.1641046 L66.469,29.601 L66.4420401,29.8900478 C66.4264512,30.0469812 66.3995782,30.1982306 66.3598252,30.349212 L66.2903362,30.57616 L65.718,32.167 L65.7648145,34.9070393 C65.7821423,35.7484796 65.4334074,36.5462814 64.809916,37.1176831 L64.6611976,37.2454429 L63.4986089,38.1796241 C63.3178155,38.3244239 63.1204298,38.4480009 62.910922,38.5484312 L62.792,38.6 L61.717,39.936 L61.7874094,39.9971462 C62.1170211,40.3027666 62.3772318,40.6815289 62.5405779,41.1118934 L62.6045728,41.2994319 L62.764,41.826 L62.9627974,42.0707046 L63.6171905,43.010643 C64.1332885,43.7595776 64.2620922,44.682416 64.0087842,45.5158483 L63.951,45.681 L64.2770922,46.0562113 C64.7256066,46.578962 64.9764453,47.2292879 64.9908026,47.9088922 L64.9879766,48.1135536 L64.9324177,49.139242 C64.9045974,49.6091821 64.7624209,50.0598516 64.5269894,50.4573114 L64.467,50.55 L64.5471363,50.6834672 C64.7922516,51.1270725 64.9187143,51.6291626 64.9082822,52.1448113 L64.899,52.304 L65.0490656,52.3197366 C65.9775557,52.4448811 66.8222915,52.9862182 67.2976355,53.8339332 L67.3823639,53.9964433 L67.7180061,54.6980483 C68.1632274,55.6347687 68.0748585,56.7217514 67.5152346,57.5505147 L67.499,57.572 L67.4981525,57.6974581 C67.4648769,58.4623529 67.1265564,59.1899924 66.5448519,59.7250548 L66.394391,59.8547185 L64.3416754,61.4961997 L64.2433504,61.5655574 L63.783,61.849 L63.7732837,61.9151048 C63.7430421,62.0662948 63.7008063,62.2149446 63.6469327,62.3593958 L63.5574383,62.5727163 C63.2532821,63.2317475 62.7020692,63.7600004 62.0253859,64.0539913 L61.8378164,64.1282847 L60.0209855,64.7743287 C59.8544914,64.8297045 59.7073732,64.8692105 59.5623573,64.8962709 L59.4174025,64.9193097 L58.0718764,65.1042599 C57.6913787,65.1568909 57.2961088,65.1378522 56.9221044,65.0477305 C56.3851874,64.9183526 56.0548117,64.3782139 56.1841896,63.8412969 C56.3043263,63.3427312 56.7786393,63.0222546 57.2756711,63.0826032 L57.3906232,63.1033822 C57.4773221,63.1242736 57.5699542,63.1343071 57.6619614,63.1331579 L57.7986841,63.1230065 L59.1507245,62.937177 C59.1937416,62.9315147 59.2374836,62.9224749 59.2881872,62.9083895 L59.3702436,62.8832688 L61.1650423,62.2448389 C61.4253066,62.1514832 61.6371029,61.9608449 61.7436865,61.7299365 C61.7904058,61.6300683 61.8184467,61.5234515 61.8269821,61.4155855 L61.8289849,61.3075068 C61.8154427,60.9865276 61.9567915,60.6812558 62.2042225,60.4838079 L62.3018864,60.4149991 L63.144,59.893 L65.1417905,58.2955612 C65.3799498,58.1033389 65.5066701,57.8320056 65.5005869,57.5531866 L65.4897868,57.4334433 C65.454907,57.2141881 65.4941372,56.9908878 65.5991505,56.7980665 L65.6699859,56.6863073 L65.8027665,56.5055893 C65.9925098,56.2636322 66.0473514,55.9579128 65.9592696,55.6773311 L65.9127464,55.55888 L65.5799397,54.8631905 C65.3740439,54.4372272 64.8795765,54.2109972 64.394645,54.3175323 L64.2737833,54.3511757 L64.016612,54.4392224 C63.7634771,54.5258871 63.4881001,54.5069721 63.2512491,54.3904276 L63.1363154,54.3240563 L62.8942718,54.1619832 C62.430823,53.8516564 62.3162997,53.2291027 62.6178129,52.7773216 L62.6888152,52.6833013 C62.8144772,52.5355073 62.8889047,52.3580152 62.9053201,52.1668127 C62.9265526,51.9219208 62.8503538,51.6857057 62.6897602,51.4967716 L62.6024908,51.4064233 L62.4581956,51.2740729 C62.0259322,50.8775925 62.0309788,50.2050804 62.4441656,49.8130536 L62.538942,49.7335438 C62.7401121,49.5845398 62.8761216,49.3693627 62.9209394,49.1410661 L62.9356285,49.0260701 L62.990622,48.0108655 C63.0000759,47.8166197 62.9461056,47.6248502 62.8359886,47.4592367 L62.7632391,47.3631967 L61.9934707,46.4771221 C61.7121139,46.1532544 61.6714036,45.6906467 61.879608,45.3259794 L61.949545,45.2197542 C62.1616261,44.9381144 62.1920886,44.5681003 62.0390692,44.2612598 L61.9730825,44.1494518 L61.370667,43.2783809 L61.0931315,42.9418969 C61.0370337,42.8738839 60.9903008,42.7989033 60.9540146,42.7189737 L60.9075556,42.5956199 L60.690744,41.8801717 C60.6026562,41.590261 60.3720459,41.3563963 60.0693342,41.2464237 L59.9525751,41.2111239 C59.2805339,41.0472547 58.9847214,40.2760521 59.3407675,39.7101889 L59.4104219,39.6126276 L61.4043721,37.1349836 C61.5046093,37.0104308 61.6328626,36.9121905 61.7779652,36.8478302 L61.889777,36.8060307 C61.978938,36.7786415 62.0629456,36.7410126 62.1391001,36.694898 L62.2471046,36.619581 L63.4077652,35.686948 C63.6106145,35.5236583 63.7326122,35.3042582 63.7596368,35.0654086 L63.7651693,34.9445327 L63.7157133,32.0193649 C63.7143509,31.9387802 63.7227375,31.858476 63.7405873,31.7801814 L63.7744235,31.6644627 L64.4049002,29.9090453 L64.4343931,29.8052461 L64.4512556,29.6983707 L64.4966387,29.2115905 C64.5050747,29.1211064 64.5257842,29.0324091 64.5580344,28.9478957 L64.6149735,28.8245633 L65.5016009,27.2034943 C65.6792719,26.8794374 65.634215,26.485426 65.4080267,26.1962473 L65.316,26.095 L62.959162,25.9991658 C62.446754,25.9782226 62.0402004,25.5752434 62.0027938,25.0759606 L62.0008342,24.959162 C62.0217774,24.446754 62.4247566,24.0402004 62.9240394,24.0027938 L63.040838,24.0008342 Z M44.0558166,13.121539 L44.1734752,13.277154 L44.496,13.732 L44.6720345,13.748173 C45.7868929,13.881975 46.7381462,14.6029426 47.135982,15.6420944 L47.148,15.68 C47.4757796,15.8216926 47.7679848,16.0125751 48.0208358,16.2483923 L48.058,16.286 L48.1116643,16.3020901 C48.1769099,16.3236882 48.241246,16.3474372 48.3045209,16.3732645 L48.4910105,16.4569084 L49.314991,16.8531895 C49.5745812,16.9803445 49.8119649,17.1402723 50.0216396,17.3281878 L50.082,17.387 L50.1504168,17.3714877 C50.9681638,17.173667 51.846428,17.3302799 52.5526865,17.7912772 L52.7255331,17.9128389 C53.2498983,18.3112237 53.6192004,18.8559733 53.7905336,19.466247 L53.842,19.684 L54.5615578,20.1725625 C54.6678168,20.2446774 54.7588532,20.3363496 54.830035,20.4422882 L54.8944272,20.5527864 L55.8944272,22.5527864 C56.1414164,23.0467649 55.9411921,23.6474379 55.4472136,23.8944272 C54.9885193,24.1237744 54.4378281,23.9675139 54.1637448,23.548514 L54.1055728,23.4472136 L53.222,21.68 L52.3369338,21.0798757 C52.0969784,20.917025 51.9412627,20.6594047 51.9060831,20.3755143 L51.8902708,20.1295131 C51.8575343,19.8870016 51.7279104,19.6666425 51.5172636,19.5066019 C51.2997262,19.3420342 51.0175756,19.265613 50.7459426,19.2943903 L50.6113503,19.3176245 L49.9387485,19.4735288 C49.5636278,19.560479 49.1761252,19.4239786 48.9376144,19.1309742 L48.8638503,19.0276015 C48.7856478,18.9019 48.6767732,18.7932643 48.5448521,18.7100042 L48.4417092,18.6524468 L47.6174535,18.2560308 C47.5585003,18.2271314 47.4986747,18.2041446 47.4374941,18.1868498 L47.3446464,18.165149 C47.1498669,18.1289081 46.9711573,18.0358249 46.8303768,17.8989094 L46.7506349,17.8116044 C46.6330151,17.6664563 46.473618,17.555161 46.2916349,17.4907619 L46.1512126,17.4514595 C45.8372501,17.3858549 45.5763477,17.1744242 45.4455106,16.8867189 L45.4026939,16.7753899 L45.2894655,16.4189503 C45.1725701,16.0444715 44.8370096,15.7779194 44.4217276,15.7325502 L44.2948903,15.7256882 L43.974299,15.7256882 C43.6905508,15.7256882 43.4222177,15.6052954 43.2339653,15.3979426 L43.1583771,15.3038504 L42.5401862,14.4314333 C42.3257126,14.1271486 41.928523,13.9605329 41.5349162,14.0062221 L41.4041022,14.0294174 L38.1196868,14.8542062 C37.8558512,14.9206427 37.6383399,15.0757457 37.5018617,15.2868694 L37.4405361,15.3969486 L36.7213898,16.9160057 C36.6732264,17.0199521 36.6448265,17.1328959 36.6375246,17.245879 L36.6373048,17.3585434 L36.7693815,19.3460424 C36.7870167,19.6114179 36.6982057,19.8709236 36.5258999,20.0688728 L36.4328954,20.1624598 L35.5054496,20.980116 C35.4379957,21.0395848 35.3629858,21.089546 35.282527,21.1287906 L35.1580157,21.1794689 L31.6981981,22.3232325 C31.3505953,22.4371105 31.102259,22.7086751 31.0291106,23.0306958 L31.0100402,23.1536093 L30.9908396,23.3762496 C30.9433217,23.9272432 30.4608824,24.3270999 29.9234988,24.287927 L29.8076426,24.272708 L27.9859157,23.9261295 C27.8235822,23.895246 27.6720859,23.8247536 27.5445106,23.7217219 L27.4535187,23.6384574 L26.0518953,22.1872288 C25.8695029,21.9993377 25.6068257,21.8808842 25.3532548,21.8675506 L25.2276421,21.8698089 L23.5965418,21.9497455 C23.2755857,21.9670954 22.9914759,22.1152191 22.8102752,22.3543208 C22.6614615,22.548983 22.5972448,22.7835567 22.624424,23.0161242 L22.6456614,23.1320467 L23.165,25.173 L23.856358,26.7694406 C24.1572512,27.4646901 23.6078224,28.2132517 22.8778607,28.1651075 L22.7670962,28.1518043 L22.2234742,28.0571166 C22.0677337,28.0285462 21.9062176,28.0346124 21.7519102,28.0741781 L21.6377343,28.1101159 L21.4823842,28.1690006 C21.1584464,28.2917877 20.7973318,28.2373424 20.5255684,28.0321629 L20.4280926,27.9482067 L19.6885928,27.2236476 C19.5079349,27.0463575 19.2540436,26.9400217 18.9792871,26.9257033 L18.8404125,26.9263098 L14.8417485,27.2728848 C14.761189,27.279323 14.6829842,27.2946173 14.6038367,27.3196764 L14.4839963,27.3647024 L11.5858798,28.6683132 C11.1454168,28.866781 10.9251581,29.3074547 11.0233008,29.733934 L11.0545267,29.8401097 L11.4962555,31.0653037 C11.5508297,31.2160238 11.6500498,31.3564139 11.7847595,31.4708888 L11.8923029,31.5516424 C12.2002388,31.7554903 12.3679746,32.1100217 12.3366287,32.4715616 L12.3187259,32.5921374 C12.2707751,32.8191717 12.3106717,33.0566028 12.4449377,33.2760494 L12.5200966,33.4035581 L12.65739,33.6166314 C12.6787235,33.6476795 12.6992489,33.6765609 12.7189153,33.7033739 L12.8262002,33.8402156 L12.9104337,33.9321259 L12.9691792,33.9838168 C12.9842423,33.9948674 12.9946512,33.9999925 13,33.9999925 C13.5522847,33.9999925 14,34.4477153 14,34.9999925 C14,35.5522847 13.5522847,35.9999925 13,35.9999925 C12.0716761,35.9999925 11.3373478,35.3667263 10.7250844,34.2964155 C10.4919931,33.9170348 10.3527538,33.491513 10.3117225,33.05524 L10.299,32.818 L10.2910733,32.8104952 C10.0416156,32.5574206 9.83907177,32.2636044 9.69477083,31.9414928 L9.61527005,31.7449299 L9.17280842,30.5177052 C8.67199099,29.1251899 9.29093912,27.6110091 10.5979208,26.925864 L10.7648458,26.8446075 L13.6756697,25.5353767 C13.9412423,25.4201246 14.2056342,25.3429779 14.4738106,25.3029117 L14.67573,25.2797986 L18.6927641,24.9319255 C19.5293186,24.8805534 20.3321431,25.1388869 20.9408342,25.6599276 L21.0888697,25.7956336 L21.377,26.079 L21.2988216,25.8954076 L21.2475171,25.745113 L20.7066298,23.6220896 C20.4898616,22.7573597 20.678388,21.8499393 21.2188185,21.1430209 C21.7147541,20.4885727 22.4598636,20.069649 23.2855929,19.9704835 L23.4936072,19.9524025 L25.0839553,19.875505 C25.878223,19.7999242 26.7191938,20.0960514 27.3386278,20.6517297 L27.4887156,20.7959917 L28.671,22.02 L29.226,22.126 L29.2573995,22.0493089 C29.5683456,21.3505908 30.1488345,20.7869245 30.8856072,20.4916241 L31.0729908,20.4234671 L34.335,19.345 L34.74,18.987 L34.6414084,17.4865107 C34.6157072,17.0704814 34.6792017,16.6540246 34.8284574,16.2617387 L34.9102161,16.0677239 L35.6330819,14.5407307 C35.9883079,13.7913691 36.638554,13.2293073 37.4309639,12.9723949 L37.6319397,12.9145922 L40.9268983,12.0872093 C42.0931183,11.8069724 43.3218094,12.2153131 44.0558166,13.121539 Z M55,30 C55.5522847,30 56,30.4477153 56,31 C56,31.5128358 55.6139598,31.9355072 55.1166211,31.9932723 L55,32 L53,32 C52.4477153,32 52,31.5522847 52,31 C52,30.4871642 52.3860402,30.0644928 52.8833789,30.0067277 L53,30 L55,30 Z M21.7938608,42.3919005 L21.6981126,42.2625407 L21.8919402,42.3424048 L22.2899416,42.4863576 L23.3593009,42.8429317 L23.5325715,42.9073852 C23.5572478,42.9173134 23.5802091,42.9269992 23.6020341,42.9366896 L24.599107,43.4281261 C24.8504476,43.5524221 25.0363447,43.7755273 25.1148032,44.0410143 L25.1417279,44.1572247 C25.1528245,44.2226251 25.1714525,44.2870279 25.1973477,44.3493795 L25.241608,44.4412369 C25.4444272,44.8091513 25.3940482,45.2598431 25.126828,45.5728762 L25.040193,45.6624359 C24.8267469,45.8573546 24.7107899,46.1194823 24.7146856,46.3863518 C24.7163163,46.5006986 24.7409526,46.6159084 24.7867611,46.7243488 L24.8395592,46.8302503 C24.9513463,47.0232012 24.9948035,47.2467801 24.9653039,47.4653104 L24.9237187,47.6605195 L24.9131863,47.7288531 L24.3065616,52.832877 C24.2927837,52.9459578 24.2996911,53.0570248 24.326637,53.163547 L24.3602383,53.2684606 C24.4451667,53.4863312 24.4510578,53.7270754 24.3768875,53.9488393 L24.3569858,54.0149535 L24.3429075,54.0772298 L23.6097947,57.9395055 C23.5854832,58.0675865 23.5364472,58.1892555 23.4658641,58.2978818 L23.3882163,58.4019148 L22.0672005,59.9509107 C21.8807521,60.170162 21.8072195,60.4503887 21.8606757,60.7231878 C21.9087763,60.960124 22.0493776,61.1709544 22.2573275,61.3169476 L22.3667985,61.3843617 L23.2156965,61.8352503 C23.3458536,61.9043827 23.4587097,62.0012036 23.5466013,62.1183877 L23.6077195,62.2099794 L24.0133691,62.8970201 C24.0993176,63.0430432 24.2283446,63.1689282 24.381328,63.2569027 L24.5002586,63.3154978 L26.4854813,64.1382012 C26.5687148,64.1726943 26.6467113,64.2181963 26.7174474,64.2733379 L26.8178533,64.363109 L27.4126057,64.9717388 C27.5784784,65.1418215 27.8088746,65.252232 28.0546735,65.2803068 L28.1786291,65.287378 L29.0589462,65.287378 C29.1889144,65.287378 29.3172095,65.3127086 29.4367874,65.3615072 L29.5531987,65.4180596 L30.1439532,65.753952 C30.2273777,65.8020015 30.314425,65.8380264 30.4060384,65.8622058 L30.547001,65.889613 L34.0208073,66.3411488 C34.3263628,66.3836797 34.6342524,66.2948689 34.8626591,66.1014131 L34.9243908,66.0447437 L34.9787196,65.985973 C35.1894195,65.7375719 35.5058867,65.6092931 35.82556,65.6363712 L35.9453875,65.6538767 L36.2816884,65.7239775 L36.4444726,65.7726536 L37.2479874,66.0895094 C37.4882905,66.1842698 37.6809794,66.3675886 37.7883053,66.5989941 L37.8346799,66.7185167 C37.9034484,66.9361695 38.0552704,67.1281064 38.2591387,67.2541287 L38.3652665,67.3114609 L39.3372289,67.7665674 C39.4998447,67.840995 39.6890663,67.8742797 39.873734,67.8626943 L40.0108939,67.8455338 L40.8429187,67.6817783 C40.9226085,67.6660941 41.0037619,67.6602056 41.0845856,67.6641347 L41.20535,67.6773941 L42.9453776,67.9809315 L43.1620566,68 C43.2262089,68 43.2902732,67.9946121 43.3503204,67.9844453 L43.4368873,67.9656869 L45.6209758,67.4060142 C45.8909561,67.3348867 46.1209793,67.1631688 46.2498539,66.942227 C46.3564532,66.762142 46.3974759,66.5488087 46.3681561,66.3453598 L46.342085,66.2248215 L45.811451,64.4257536 C45.751019,64.2208642 45.758078,64.0031553 45.8296801,63.8042154 L45.8803628,63.6873565 L46.4261245,62.6207021 C46.6776884,62.1290375 47.2801941,61.9343975 47.7718587,62.1859613 C48.2284044,62.4195563 48.4288422,62.9557492 48.2537307,63.4248105 L48.2065995,63.5316955 L47.842,64.242 L48.2612749,65.6620604 C48.4675527,66.3696805 48.3956933,67.1305874 48.0694819,67.7808966 L47.9742267,67.9553884 C47.6111811,68.5779102 47.017132,69.0506736 46.3173529,69.2840664 L46.1239768,69.3417168 L43.9455553,69.8998787 C43.7500449,69.952615 43.5375518,69.9850508 43.284755,69.9944806 L43.0872361,69.997197 L42.7012368,69.9636896 L41.049,69.679 L40.3905984,69.809148 C39.8246158,69.9166445 39.2353131,69.866778 38.6965577,69.6644969 L38.4970381,69.5815067 L37.5180199,69.1231376 C36.9470035,68.8564012 36.4783235,68.4205352 36.174357,67.8859501 L36.128,67.798 L36.002,67.748 C35.4103521,68.1866503 34.6809857,68.3972664 33.9525827,68.3442759 L33.7540572,68.3232593 L30.2907804,67.8731322 C29.9664275,67.8314923 29.6545554,67.7397377 29.3641965,67.6018342 L29.1506021,67.4898156 L28.795,67.287 L28.1786291,67.287378 C27.4202966,67.287378 26.6861418,67.0078502 26.1289423,66.5099849 L25.9814809,66.3688362 L25.531,65.907 L23.7343766,65.1630433 C23.1974445,64.9403954 22.733459,64.5661273 22.4065178,64.0941582 L22.2904641,63.9126954 L22.028,63.469 L21.4247741,63.1486097 C20.6946535,62.7567062 20.1634377,62.0978589 19.9468663,61.3132168 L19.8993455,61.1145172 C19.7404816,60.3041471 19.9291853,59.4761062 20.4165044,58.8157001 L20.544527,58.6541982 L21.693,57.306 L22.3773496,53.7076755 L22.389,53.655 L22.3757934,53.6052262 C22.3138248,53.3411348 22.2894015,53.0695579 22.3032847,52.797722 L22.3208915,52.5939094 L22.93,47.468 L22.9226816,47.449786 C22.8174889,47.1866223 22.7508581,46.9094262 22.7258233,46.6274458 L22.7148938,46.4152079 C22.7073045,45.895323 22.8397731,45.3893158 23.0899534,44.9426004 L23.103,44.919 L22.7784294,44.7589411 L21.6377113,44.3770186 L21.1483376,44.20144 C20.6439665,44.0111907 20.4128923,43.8780113 20.2061392,43.6080995 C19.8702951,43.1696623 19.9534633,42.5419833 20.3919005,42.2061392 C20.8303377,41.8702951 21.4580167,41.9534633 21.7938608,42.3919005 Z M49,50 C49.5522847,50 50,50.4477153 50,51 C50,51.5128358 49.6139598,51.9355072 49.1166211,51.9932723 L49,52 L47,52 C46.4477153,52 46,51.5522847 46,51 C46,50.4871642 46.3860402,50.0644928 46.8833789,50.0067277 L47,50 L49,50 Z M35,36 C35.5522847,36 36,36.4477153 36,37 C36,37.5128358 35.6139598,37.9355072 35.1166211,37.9932723 L35,38 L33,38 C32.4477153,38 32,37.5522847 32,37 C32,36.4871642 32.3860402,36.0644928 32.8833789,36.0067277 L33,36 L35,36 Z" id="Couleur-majeure" fill="#000091"></path>
    </g>
</svg>
