<?xml version="1.0" encoding="UTF-8"?>
<svg aria-hidden="true" focusable="false" width="80px" height="80px" viewBox="0 0 80 80" version="1.1" xmlns="http://www.w3.org/2000/svg" xmlns:xlink="http://www.w3.org/1999/xlink">
    <g id="map" stroke="none" stroke-width="1" fill="none" fill-rule="evenodd">
        <path d="M17,8 C16.4485999,8 16,7.55140011 16,7 C16,6.4485529 16.4485999,6 17,6 C17.5514001,6 18,6.4485529 18,7 C18,7.55140011 17.5514001,8 17,8 Z M21,76 C20.4485999,76 20,75.5514001 20,75 C20,74.4485529 20.4485999,74 21,74 C21.5514001,74 22,74.4485529 22,75 C22,75.5514001 21.5514001,76 21,76 Z M63,74 C62.4485999,74 62,73.5514001 62,73 C62,72.4485529 62.4485999,72 63,72 C63.5514001,72 64,72.4485529 64,73 C64,73.5514001 63.5514001,74 63,74 Z M65,10 C64.4485999,10 64,9.55140011 64,9 C64,8.4485529 64.4485999,8 65,8 C65.5514001,8 66,8.4485529 66,9 C66,9.55140011 65.5514001,10 65,10 Z M41,80 C40.4485999,80 40,79.5514001 40,79 C40,78.4485529 40.4485999,78 41,78 C41.5514001,78 42,78.4485529 42,79 C42,79.5514001 41.5514001,80 41,80 Z" id="Couleur-décorative" fill="#ECECFE"></path>
        <path d="M33,16 C34.6568542,16 36,17.3431458 36,19 C36,20.3058822 35.1656226,21.4168852 34.0009007,21.8289758 L34,25 C34,25.5522847 33.5522847,26 33,26 C32.4871642,26 32.0644928,25.6139598 32.0067277,25.1166211 L32,25 L32.0000889,21.8293257 C30.8348501,21.4175144 30,20.3062521 30,19 C30,17.3431458 31.3431458,16 33,16 Z M33,18 C32.4477153,18 32,18.4477153 32,19 C32,19.5522847 32.4477153,20 33,20 C33.5522847,20 34,19.5522847 34,19 C34,18.4477153 33.5522847,18 33,18 Z M55,40 C56.6568542,40 58,41.3431458 58,43 C58,44.3058822 57.1656226,45.4168852 56.0009007,45.8289758 L56,49 C56,49.5522847 55.5522847,50 55,50 C54.4871642,50 54.0644928,49.6139598 54.0067277,49.1166211 L54,49 L54.0000889,45.8293257 C52.8348501,45.4175144 52,44.3062521 52,43 C52,41.3431458 53.3431458,40 55,40 Z M55,42 C54.4477153,42 54,42.4477153 54,43 C54,43.5522847 54.4477153,44 55,44 C55.5522847,44 56,43.5522847 56,43 C56,42.4477153 55.5522847,42 55,42 Z M26,46 C27.6568542,46 29,47.3431458 29,49 C29,50.3058822 28.1656226,51.4168852 27.0009007,51.8289758 L27,55 C27,55.5522847 26.5522847,56 26,56 C25.4871642,56 25.0644928,55.6139598 25.0067277,55.1166211 L25,55 L25.0000889,51.8293257 C23.8348501,51.4175144 23,50.3062521 23,49 C23,47.3431458 24.3431458,46 26,46 Z M26,48 C25.4477153,48 25,48.4477153 25,49 C25,49.5522847 25.4477153,50 26,50 C26.5522847,50 27,49.5522847 27,49 C27,48.4477153 26.5522847,48 26,48 Z" id="🎨Couleur-mineure-(Indice--main)" fill="#E1000F"></path>
        <path d="M14.0166644,16.0834722 L17.0499931,16.1340277 C18.2861439,16.1546302 19.3374217,16.9207617 19.7782444,17.9996881 L25,18 C25.5522847,18 26,18.4477153 26,19 C26,19.5128358 25.6139598,19.9355072 25.1166211,19.9932723 L25,20 L20,19.9994722 L20,31.9994722 L22,32 C22.5128358,32 22.9355072,32.3860402 22.9932723,32.8833789 L23,33 C23,33.5128358 22.6139598,33.9355072 22.1166211,33.9932723 L22,34 L20,33.9994722 L20.0013048,40.191193 C20.2508972,40.3730178 20.4131112,40.6675654 20.4131112,41 C20.4131112,41.3324346 20.2508972,41.6269822 20.0013048,41.808807 L20,49 C20,50.5976809 18.75108,51.9036609 17.1762728,51.9949073 L17,52 L14.0830455,51.9965458 C11.2509067,52.2325573 10,53.483464 10,56 C10,58.4516002 11.0825876,59.6905994 13.4279178,59.9747574 L13.6666667,60 L23,60 C23.5522847,60 24,60.4477153 24,61 C24,61.5128358 23.6139598,61.9355072 23.1166211,61.9932723 L23,62 L13.5777347,61.9960377 C9.95514813,61.6725925 8,59.5777909 8,56 C8,55.8288298 8.00472206,55.6610884 8.01413947,55.4968027 L8.031,55.247 L8.02641071,55.2292908 C8.01777388,55.1924762 8.0111712,55.1548779 8.00672773,55.1166211 L8,55 L8.00082178,21.902074 C8.05405043,18.708355 10.6276093,16.1477607 13.7947614,16.0834722 L14.0166644,16.0834722 Z M50,21 C50,21.5522847 49.5522847,22 49,22 C48.4871642,22 48.0644928,21.6139598 48.0067277,21.1166211 L48,21 L48,19.9994722 L41,20 C40.4871642,20 40.0644928,19.6139598 40.0067277,19.1166211 L40,19 C40,18.4871642 40.3860402,18.0644928 40.8833789,18.0067277 L41,18 L71,18 C71.5128358,18 71.9355072,18.3860402 71.9932723,18.8833789 L72,19 L72,61 C72,61.5128358 71.6139598,61.9355072 71.1166211,61.9932723 L71,62 L31,62 C30.4477153,62 30,61.5522847 30,61 C30,60.4871642 30.3860402,60.0644928 30.8833789,60.0067277 L31,60 L43.079,59.9994722 L42.460381,59.1157666 C42.1680292,58.6981211 42.239298,58.1347023 42.607856,57.8013892 L42.7061506,57.7230723 C43.1237961,57.4307205 43.6872149,57.5019893 44.020528,57.8705473 L44.0988449,57.9688419 L45.52,59.9994722 L51.079,59.9994722 L50.460381,59.1157666 C50.1680292,58.6981211 50.239298,58.1347023 50.607856,57.8013892 L50.7061506,57.7230723 C51.1237961,57.4307205 51.6872149,57.5019893 52.020528,57.8705473 L52.0988449,57.9688419 L53.52,59.9994722 L70,60 L70,41.9994722 L69,42 C68.4871642,42 68.0644928,41.6139598 68.0067277,41.1166211 L68,41 C68,40.4871642 68.3860402,40.0644928 68.8833789,40.0067277 L69,40 L70,39.9994722 L70,34 C69.4477153,34 69,33.5522847 69,33 C69,32.4477153 69.4477153,32 70,32 L70,20 L60,20 L60,23 C60,23.5522847 59.5522847,24 59,24 C58.4477153,24 58,23.5522847 58,23 L58,20 L50,19.9994722 L50,21 Z M48.5797539,52.9551557 L48.6580708,53.0534504 L50.3784579,55.5111461 C50.6951724,55.9635954 50.5851376,56.5871259 50.1326883,56.9038404 C49.7150428,57.1961923 49.151624,57.1249234 48.8183109,56.7563654 L48.739994,56.6580708 L47.019607,54.2003751 C46.7028925,53.7479258 46.8129273,53.1243953 47.2653766,52.8076808 C47.6830221,52.5153289 48.2464409,52.5865978 48.5797539,52.9551557 Z M40.5797539,52.9551557 L40.6580708,53.0534504 L42.3784579,55.5111461 C42.6951724,55.9635954 42.5851376,56.5871259 42.1326883,56.9038404 C41.7150428,57.1961923 41.151624,57.1249234 40.8183109,56.7563654 L40.739994,56.6580708 L39.019607,54.2003751 C38.7028925,53.7479258 38.8129273,53.1243953 39.2653766,52.8076808 C39.6830221,52.5153289 40.2464409,52.5865978 40.5797539,52.9551557 Z M37.1389799,48.0397642 L37.2172968,48.1380588 L38.9376838,50.5957546 C39.2543983,51.0482039 39.1443635,51.6717344 38.6919142,51.9884489 C38.2742687,52.2808007 37.7108499,52.2095319 37.3775368,51.8409739 L37.2992199,51.7426793 L35.5788329,49.2849835 C35.2621184,48.8325342 35.3721532,48.2090038 35.8246025,47.8922893 C36.242248,47.5999374 36.8056668,47.6712063 37.1389799,48.0397642 Z M45.1389799,48.0397642 L45.2172968,48.1380588 L46.9376838,50.5957546 C47.2543983,51.0482039 47.1443635,51.6717344 46.6919142,51.9884489 C46.2742687,52.2808007 45.7108499,52.2095319 45.3775368,51.8409739 L45.2992199,51.7426793 L43.5788329,49.2849835 C43.2621184,48.8325342 43.3721532,48.2090038 43.8246025,47.8922893 C44.242248,47.5999374 44.8056668,47.6712063 45.1389799,48.0397642 Z M13.9833356,18.0831945 C11.8873719,18.0482617 10.1484224,19.6657535 10.0090014,21.7338937 L10.0005441,21.9354027 L10,51.36 L10.1613129,51.2405673 C11.0723476,50.5903635 12.2642328,50.1809708 13.7232977,50.0260602 L14,50 L17,50 C17.5128358,50 17.9355072,49.6139598 17.9932723,49.1166211 L18,49 L18,19.1336111 C18,18.6268081 17.6226612,18.2069278 17.1318281,18.1422485 L17.0166644,18.13375 L13.9833356,18.0831945 Z M33.6982058,43.1243727 L33.7765227,43.2226673 L35.4969097,45.6803631 C35.8136242,46.1328124 35.7035894,46.7563428 35.2511401,47.0730574 C34.8334946,47.3654092 34.2700758,47.2941404 33.9367628,46.9255824 L33.8584459,46.8272878 L32.1380588,44.369592 C31.8213443,43.9171427 31.9313791,43.2936123 32.3838284,42.9768977 C32.8014739,42.6845459 33.3648927,42.7558147 33.6982058,43.1243727 Z M41.6982058,43.1243727 L41.7765227,43.2226673 L43.4969097,45.6803631 C43.8136242,46.1328124 43.7035894,46.7563428 43.2511401,47.0730574 C42.8334946,47.3654092 42.2700758,47.2941404 41.9367628,46.9255824 L41.8584459,46.8272878 L40.1380588,44.369592 C39.8213443,43.9171427 39.9313791,43.2936123 40.3838284,42.9768977 C40.8014739,42.6845459 41.3648927,42.7558147 41.6982058,43.1243727 Z M31,40 C31.2855246,40 31.5553352,40.1218959 31.7436881,40.3314579 L31.8192319,40.4265377 L32.0561357,40.7649716 C32.3728502,41.2174209 32.2628154,41.8409513 31.8103661,42.1576658 C31.3927206,42.4500177 30.8293018,42.3787488 30.4959887,42.0101909 L30.4176718,41.9118963 L28.4131112,42 C27.8608265,42 27.4131112,41.5522847 27.4131112,41 C27.4131112,40.4871642 27.7991514,40.0644928 28.2964901,40.0067277 L28.4131112,40 L31,40 Z M41.5868888,40 C42.1391735,40 42.5868888,40.4477153 42.5868888,41 C42.5868888,41.5522847 42.1391735,42 41.5868888,42 C40.7041732,41.8939675 40.1119989,41.9465228 39.8103661,42.1576658 C39.3927206,42.4500177 38.8293018,42.3787488 38.4959887,42.0101909 L38.4176718,41.9118963 L38.1807681,41.5734623 C37.7389164,40.9422457 38.1479468,40.0861697 38.8867684,40.00607 L39,40 L41.5868888,40 Z M25.4131112,40 C25.965396,40 26.4131112,40.4477153 26.4131112,41 C26.4131112,41.5128358 26.027071,41.9355072 25.5297324,41.9932723 L25.4131112,42 L22.4131112,42 C21.8608265,42 21.4131112,41.5522847 21.4131112,41 C21.4131112,40.4871642 21.7991514,40.0644928 22.2964901,40.0067277 L22.4131112,40 L25.4131112,40 Z M47.5868888,40 C48.1391735,40 48.5868888,40.4477153 48.5868888,41 C48.5868888,41.5128358 48.2008486,41.9355072 47.7035099,41.9932723 L47.5868888,42 L44.5868888,42 C44.034604,42 43.5868888,41.5522847 43.5868888,41 C43.5868888,40.4871642 43.972929,40.0644928 44.4702676,40.0067277 L44.5868888,40 L47.5868888,40 Z M66,40 C66.5522847,40 67,40.4477153 67,41 C67,41.5128358 66.6139598,41.9355072 66.1166211,41.9932723 L66,42 L63,42 C62.4477153,42 62,41.5522847 62,41 C62,40.4871642 62.3860402,40.0644928 62.8833789,40.0067277 L63,40 L66,40 Z M49,29 C49.5128358,29 49.9355072,29.3860402 49.9932723,29.8833789 L50,30 L50,33 C50,33.5522847 49.5522847,34 49,34 C48.4871642,34 48.0644928,33.6139598 48.0067277,33.1166211 L48,33 L48,30 C48,29.4477153 48.4477153,29 49,29 Z M46,32 C46.5522847,32 47,32.4477153 47,33 C47,33.5128358 46.6139598,33.9355072 46.1166211,33.9932723 L46,34 L43,34 C42.4477153,34 42,33.5522847 42,33 C42,32.4871642 42.3860402,32.0644928 42.8833789,32.0067277 L43,32 L46,32 Z M40,32 C40.5522847,32 41,32.4477153 41,33 C41,33.5128358 40.6139598,33.9355072 40.1166211,33.9932723 L40,34 L37,34 C36.4477153,34 36,33.5522847 36,33 C36,32.4871642 36.3860402,32.0644928 36.8833789,32.0067277 L37,32 L40,32 Z M34,32 C34.5522847,32 35,32.4477153 35,33 C35,33.5128358 34.6139598,33.9355072 34.1166211,33.9932723 L34,34 L31,34 C30.4477153,34 30,33.5522847 30,33 C30,32.4871642 30.3860402,32.0644928 30.8833789,32.0067277 L31,32 L34,32 Z M28,32 C28.5522847,32 29,32.4477153 29,33 C29,33.5128358 28.6139598,33.9355072 28.1166211,33.9932723 L28,34 L25,34 C24.4477153,34 24,33.5522847 24,33 C24,32.4871642 24.3860402,32.0644928 24.8833789,32.0067277 L25,32 L28,32 Z M67,32 C67.5522847,32 68,32.4477153 68,33 C68,33.5522847 67.5522847,34 67,34 L64,34 C63.4477153,34 63,33.5522847 63,33 C63,32.4477153 63.4477153,32 64,32 L67,32 Z M59,31 C59.5522847,31 60,31.4477153 60,32 L61,32 C61.5522847,32 62,32.4477153 62,33 C62,33.5522847 61.5522847,34 61,34 L59,34 C58.4477153,34 58,33.5522847 58,33 L58,32 C58,31.4477153 58.4477153,31 59,31 Z M41,25 C41.5128358,25 41.9355072,25.3860402 41.9932723,25.8833789 L42,26 L42,29 C42,29.5522847 41.5522847,30 41,30 C40.4871642,30 40.0644928,29.6139598 40.0067277,29.1166211 L40,29 L40,26 C40,25.4477153 40.4477153,25 41,25 Z M59,25 C59.5522847,25 60,25.4477153 60,26 L60,29 C60,29.5522847 59.5522847,30 59,30 C58.4477153,30 58,29.5522847 58,29 L58,26 C58,25.4477153 58.4477153,25 59,25 Z M49,23 C49.5128358,23 49.9355072,23.3860402 49.9932723,23.8833789 L50,24 L50,27 C50,27.5522847 49.5522847,28 49,28 C48.4871642,28 48.0644928,27.6139598 48.0067277,27.1166211 L48,27 L48,24 C48,23.4477153 48.4477153,23 49,23 Z M46,24 C46.5522847,24 47,24.4477153 47,25 C47,25.5128358 46.6139598,25.9355072 46.1166211,25.9932723 L46,26 L43,26 C42.4477153,26 42,25.5522847 42,25 C42,24.4871642 42.3860402,24.0644928 42.8833789,24.0067277 L43,24 L46,24 Z" id="Couleur-majeure" fill="#000091"></path>
    </g>
</svg>
