<svg xmlns="http://www.w3.org/2000/svg" width="40" height="40" viewBox="0 0 40 40">
    <g fill="none" fill-rule="evenodd">
        <g fill="#FFF">
            <g>
                <path d="M22.862 3.245l6.223 2.39-1.195 3.112-1.557-.599-1.243 3.242c1.298.77 2.407 1.823 3.242 3.077l3.171-1.412-.678-1.523 3.045-1.355 2.712 6.09-3.045 1.355-.679-1.522-3.17 1.412c.204.795.312 1.63.312 2.488 0 .677-.067 1.338-.195 1.978l3.24 1.244.597-1.555 3.113 1.195-2.39 6.223-3.112-1.195.597-1.555-3.24-1.245c-.77 1.298-1.823 2.407-3.077 3.242l1.412 3.171 1.523-.678 1.355 3.045-6.09 2.712-1.355-3.045 1.522-.679-1.412-3.17c-.795.204-1.63.312-2.488.312-.678 0-1.34-.067-1.98-.197l-1.243 3.242 1.556.597-1.195 3.113-6.223-2.39 1.195-3.112 1.553.597 1.247-3.24c-1.298-.77-2.407-1.823-3.243-3.077l-3.172 1.412.678 1.523-3.045 1.355-2.711-6.09 3.045-1.355.676 1.524 3.172-1.414c-.202-.795-.31-1.63-.31-2.488 0-.677.067-1.338.195-1.978l-3.242-1.244-.595 1.555-3.113-1.195 2.39-6.221 3.112 1.195-.599 1.555 3.242 1.245c.77-1.3 1.823-2.409 3.077-3.245l-1.412-3.172-1.523.678-1.355-3.045 6.09-2.71 1.355 3.045-1.522.679 1.412 3.17C18.307 10.108 19.142 10 20 10c.677 0 1.338.067 1.978.195l1.242-3.242-1.553-.595 1.195-3.113zM16.89 22.053c-.46.797-.187 1.817.61 2.277.797.46 1.817.187 2.277-.61.46-.797.186-1.817-.61-2.277-.797-.46-1.817-.186-2.277.61zm6.443-3.72c-.92 0-1.666.747-1.666 1.667s.746 1.667 1.666 1.667c.92 0 1.667-.747 1.667-1.667s-.747-1.667-1.667-1.667zM17.5 15.67c-.797.46-1.07 1.48-.61 2.277.46.796 1.48 1.07 2.277.61.796-.46 1.07-1.48.61-2.277-.46-.797-1.48-1.07-2.277-.61z" transform="translate(-362 -258) translate(362 258)"/>
            </g>
        </g>
    </g>
</svg>
