<svg xmlns="http://www.w3.org/2000/svg" width="56" height="56" viewBox="0 0 56 56">
    <g fill="none" fill-rule="evenodd">
        <g>
            <g>
                <g>
                    <g>
                        <path fill="#DADAFE" d="M14.7 51.8c.386 0 .7.314.7.7 0 .386-.314.7-.7.7-.386 0-.7-.314-.7-.7 0-.386.314-.7.7-.7zm39.2-14c.386 0 .7.314.7.7 0 .386-.314.7-.7.7-.386 0-.7-.314-.7-.7 0-.386.314-.7.7-.7zM.7 35c.386 0 .7.314.7.7 0 .386-.314.7-.7.7-.386 0-.7-.314-.7-.7 0-.386.314-.7.7-.7zm51.8-21c.386 0 .7.314.7.7 0 .386-.314.7-.7.7-.386 0-.7-.314-.7-.7 0-.386.314-.7.7-.7zM9.1 7c.386 0 .7.314.7.7 0 .386-.314.7-.7.7-.386 0-.7-.314-.7-.7 0-.386.314-.7.7-.7zm32.2-4.2c.386 0 .7.314.7.7 0 .386-.314.7-.7.7-.386 0-.7-.314-.7-.7 0-.386.314-.7.7-.7z" transform="translate(-551 -5113) translate(527 5045) translate(0 52) translate(24 16)"/>
                        <path fill="#04A761" d="M18.903 40.6c.387.002.699.316.697.703l-.035 4.206c-.005 1.115-.878 2.024-1.977 2.087l-.123.004h-6.97c-1.118-.008-2.026-.889-2.082-1.985l-.003-.123-.008-2.737L8.4 42.7l.003-.043-.003-1.355c0-.387.312-.701.698-.702.36 0 .656.269.697.617l.005.081.002.701L16.1 42c.387 0 .7.313.7.7 0 .359-.27.655-.618.695l-.082.005H9.805l.005 2.095c-.003.359.266.657.61.7l.08.005h6.965c.385 0 .698-.312.7-.697l.035-4.206c.002-.387.316-.699.703-.697zM17.5 25.2c.387 0 .7.313.7.7v2.8c0 .387-.313.7-.7.7h-.7v1.157l.053.067c1.753 2.258 2.677 4.34 2.743 6.256l.004.22c0 .387-.313.7-.7.7-.387 0-.7-.313-.7-.7 0-1.684-.87-3.643-2.647-5.863-.079-.099-.13-.218-.147-.342L15.4 30.8v-1.4h-4.9c-.387 0-.7-.313-.7-.7v-2.8c0-.387.313-.7.7-.7zm-6.157 5.862c.242-.301.683-.35.984-.108.302.241.35.682.11.984-.186.23-.36.458-.526.684l-.247.344c-.86 1.226-1.429 2.348-1.71 3.366l-.016.067 3.104-.01.282.005.094.011.079.02.045.015.046.022.087.047.04.027.064.048c.055.047.086.094.117.195l.031.12.059.272-.014.08c-.072.316-.354.541-.677.543l-.061-.004-.813-.001-3.084.01-.282-.005-.094-.011-.105-.028-.04-.017-.114-.06-.04-.029-.065-.049c-.074-.063-.104-.127-.146-.317l-.056-.273c.19-1.569.974-3.27 2.324-5.13l.244-.329c.122-.162.25-.325.38-.489zm25.785 2.626c.013 0 .026 0 .038.002l.05.007.055.011.033.01c.016.004.032.01.047.016l.056.024.031.016c.083.046.158.109.218.187l.005.008.045.068 1.4 2.425c.194.335.079.763-.256.956-.31.18-.702.094-.911-.188l-.045-.068-1.051-1.818-3.03 1.75c-.335.193-.763.078-.957-.257-.179-.31-.093-.702.188-.911l.069-.045 3.637-2.1.043-.023.023-.012-.036.02.052-.026.072-.025.02-.006.02-.005.046-.009.035-.004.048-.004h.055zm.11-7.463c.179.31.093.702-.189.911l-.068.045-1.819 1.05c-.334.193-.762.079-.956-.256-.18-.311-.093-.702.188-.911l.068-.045 1.82-1.05c.334-.194.762-.079.955.256zM16.8 26.6h-5.6V28h5.6v-1.4zm19.037-2.8c.18.31.094.702-.188.911l-.068.045-4.243 2.45c-.335.194-.763.079-.957-.256-.18-.31-.093-.702.188-.911l.069-.045 4.243-2.45c.335-.194.763-.079.956.256zm-1.4-2.425c.18.311.094.702-.188.911l-.068.045-1.819 1.05c-.334.194-.762.079-.956-.256-.18-.31-.093-.702.188-.911l.068-.045 1.82-1.05c.334-.193.762-.079.955.256zm-1.4-2.425c.18.311.094.702-.188.912l-.068.044-4.243 2.45c-.335.194-.763.08-.957-.256-.18-.31-.093-.702.188-.911l.069-.045 4.243-2.45c.335-.193.763-.079.956.256z" transform="translate(-551 -5113) translate(527 5045) translate(0 52) translate(24 16)"/>
                        <path fill="#000091" d="M21.606 6.151l4.55 7.88c.67-.386 1.526-.156 1.913.513l.7 1.213.123-.072c1.233-.711 2.8-.316 3.568.873l.072.117 9.86 17.081.608-.35c1.004-.58 2.288-.236 2.868.768.58 1.005.236 2.29-.768 2.869-.335.193-.763.079-.956-.256-.18-.311-.094-.702.187-.912l.069-.044c.335-.194.45-.622.256-.957-.18-.31-.561-.432-.883-.293l-.073.037-9.7 5.6c-.335.193-.45.622-.256.956.18.311.561.432.883.293l.073-.036 3.03-1.75h.001l3.638-2.1h-.001l.607-.35c.335-.194.763-.079.956.256.18.31.093.702-.188.911l-.068.045-.607.35 2.1 3.637 1.213-.7c.67-.386 1.526-.157 1.913.513.369.639.176 1.448-.424 1.857l-.089.055-6.062 3.5c-.67.387-1.526.157-1.913-.512-.369-.64-.176-1.449.424-1.857l.089-.056 1.211-.7-2.1-3.636-3.03 1.749c-1.004.58-2.288.236-2.868-.769-.56-.968-.26-2.197.663-2.804l.105-.064.606-.35-4.353-7.54c-.193-.335-.078-.763.256-.957.311-.179.703-.093.912.188l.045.069 1.552 2.69 4.244-2.45c.335-.193.763-.079.957.256.18.311.093.702-.188.911l-.069.045-4.244 2.45 2.1 3.638 6.063-3.5-9.861-17.081c-.336-.581-1.051-.801-1.636-.525l-.092.048-3.884 2.243c-.57.329-.783 1.045-.5 1.641l.05.093.645 1.119c.194.335.079.763-.256.956-.31.18-.702.094-.911-.188l-.045-.068-.646-1.119c-.715-1.239-.335-2.81.846-3.575l.117-.072.123-.071-.7-1.213c-.362-.627-.183-1.42.392-1.834l.12-.078-4.55-7.881c-.193-.335-.078-.763.257-.956.335-.193.763-.079.956.256zM27.282 25.2c.387 0 .7.313.7.7v2.8c0 .387-.313.7-.7.7H26.6v1.157l.053.067c1.753 2.258 2.677 4.34 2.743 6.256l.004.217v.006l-.035 8.406c-.005 1.115-.879 2.024-1.979 2.087l-.123.004h-6.976c-1.12-.008-2.028-.888-2.084-1.988l-.003-.123.003-2.719c-.002-.023-.003-.046-.003-.07l.004-.072.004-1.33c0-.386.315-.699.701-.698.36 0 .655.271.694.62l.005.081-.002.699H25.9c.387 0 .7.313.7.7 0 .359-.27.655-.618.695l-.082.005h-6.297l-.003 2.095c-.002.359.266.657.61.7l.082.005h6.971c.387 0 .7-.312.702-.697l.031-7.703H21.7c-.387 0-.7-.313-.7-.7 0-.359.27-.655.618-.695l.082-.005h6.25l-.007-.066c-.211-1.439-1.003-3.058-2.396-4.851l-.194-.246c-.079-.099-.13-.218-.147-.342L25.2 30.8v-1.4h-2.818v1.4l-.006.095c-.017.124-.068.243-.147.342-1.776 2.22-2.647 4.179-2.647 5.863 0 .387-.313.7-.7.7-.386 0-.7-.313-.7-.7l.004-.22c.066-1.916.99-3.998 2.743-6.256l.053-.067V29.4h-.7c-.386 0-.7-.313-.7-.7v-2.8c0-.387.314-.7.7-.7zm13.573 14.294l-1.212.7 2.1 3.636 1.213-.7-2.1-3.636zM26.582 26.6h-5.6V28h5.6v-1.4z" transform="translate(-551 -5113) translate(527 5045) translate(0 52) translate(24 16)"/>
                    </g>
                </g>
            </g>
        </g>
    </g>
</svg>
