<?xml version="1.0" encoding="UTF-8"?>
<svg aria-hidden="true" focusable="false" width="14px" height="15px" viewBox="0 0 14 15" version="1.1" xmlns="http://www.w3.org/2000/svg" xmlns:xlink="http://www.w3.org/1999/xlink">
    <g id="Page-1" stroke="none" stroke-width="1" fill="none" fill-rule="evenodd">
        <g id="SPECIFICATIONS" transform="translate(-2227.000000, -639.000000)" fill="#FFFFFF">
            <g id="road-map-line" transform="translate(2226.000000, 639.000000)">
                <path d="M14.516942,2.89416328 C14.6105075,2.95591384 14.6666668,3.06056124 14.6666668,3.17266667 L14.6666668,12.6666667 L10,14.6666667 L6,12.6666667 L1.798,14.4673333 C1.69496271,14.5115029 1.57662354,14.5009206 1.48305803,14.43917 C1.38949251,14.3774195 1.3333332,14.2727721 1.3333332,14.1606667 L1.3333332,4.66666667 L2.66666667,4.09533333 L2.66666667,12.6446667 L6.04333333,11.198 L10.0433333,13.198 L13.3333332,11.7866667 L13.3333332,3.238 L14.202,2.866 C14.3050373,2.8218304 14.4233765,2.83241273 14.516942,2.89416328 Z M10.8283473,1.8386388 C12.3904262,3.4006295 12.3905692,5.93316624 10.8286667,7.49533333 L8,10.3233333 L5.17133333,7.49533333 C3.60943083,5.93316624 3.60957383,3.4006295 5.17165273,1.8386388 C6.73373163,0.276648096 9.26626837,0.276648096 10.8283473,1.8386388 Z M8,1.99943054 C6.92136073,1.99943054 5.94894635,2.64923016 5.53624421,3.64579407 C5.12354207,4.64235798 5.35183836,5.78940203 6.11466667,6.552 L8,8.438 L9.88533333,6.552 C10.6481616,5.78940203 10.8764579,4.64235798 10.4637558,3.64579407 C10.0510537,2.64923016 9.07863927,1.99943054 8,1.99943054 Z"></path>
            </g>
        </g>
    </g>
</svg>
