<?xml version="1.0" encoding="UTF-8"?>
<svg width="24px" height="24px" viewBox="0 0 24 24" version="1.1" xmlns="http://www.w3.org/2000/svg" xmlns:xlink="http://www.w3.org/1999/xlink">
    <title>zoom moins</title>
    <g id="zoom-out-line" stroke="none" stroke-width="1" fill="none" fill-rule="evenodd">
        <path d="M11,2 C15.968,2 20,6.032 20,11 C20.0029052,13.0420011 19.3082211,15.0237382 18.031,16.617 L22.314,20.899 L20.899,22.314 L16.617,18.031 C15.0237382,19.3082211 13.0420011,20.0029052 11,20 C6.032,20 2,15.968 2,11 C2,6.032 6.032,2 11,2 Z M11,4 C7.132,4 4,7.132 4,11 C4,14.867 7.132,18 11,18 C12.8204293,18.002867 14.5698857,17.2941129 15.875,16.025 L16.025,15.875 C17.2941129,14.5698857 18.002867,12.8204293 18,11 C18,7.132 14.867,4 11,4 Z M15,10 L15,12 L7,12 L7,10 L15,10 Z" fill="#000091"></path>
    </g>
</svg>
